<?xml version="1.0" encoding="UTF-8" standalone="no"?>
<svg
   xmlns:dc="http://purl.org/dc/elements/1.1/"
   xmlns:cc="http://creativecommons.org/ns#"
   xmlns:rdf="http://www.w3.org/1999/02/22-rdf-syntax-ns#"
   xmlns:svg="http://www.w3.org/2000/svg"
   xmlns="http://www.w3.org/2000/svg"
   xmlns:sodipodi="http://sodipodi.sourceforge.net/DTD/sodipodi-0.dtd"
   xmlns:inkscape="http://www.inkscape.org/namespaces/inkscape"
   height="1069.8511"
   version="1.1"
   width="1176.4724"
   id="svg2"
   inkscape:version="0.91 r13725"
   sodipodi:docname="logo.svg"
   inkscape:export-filename="/home/slemaignan/projects/hri2017/althri/logo.png"
   inkscape:export-xdpi="90.012527"
   inkscape:export-ydpi="90.012527">
  <metadata
     id="metadata261">
    <rdf:RDF>
      <cc:Work
         rdf:about="">
        <dc:format>image/svg+xml</dc:format>
        <dc:type
           rdf:resource="http://purl.org/dc/dcmitype/StillImage" />
        <dc:title></dc:title>
      </cc:Work>
    </rdf:RDF>
  </metadata>
  <defs
     id="defs259" />
  <sodipodi:namedview
     pagecolor="#ffffff"
     bordercolor="#666666"
     borderopacity="1"
     objecttolerance="10"
     gridtolerance="10"
     guidetolerance="10"
     inkscape:pageopacity="0"
     inkscape:pageshadow="2"
     inkscape:window-width="1920"
     inkscape:window-height="1025"
     id="namedview257"
     showgrid="false"
     inkscape:zoom="0.21851852"
     inkscape:cx="648.96808"
     inkscape:cy="559.06378"
     inkscape:window-x="0"
     inkscape:window-y="867"
     inkscape:window-maximized="1"
     inkscape:current-layer="g4867"
     fit-margin-top="0"
     fit-margin-left="0"
     fit-margin-right="0"
     fit-margin-bottom="0" />
  <g
     style="display:inline"
     inkscape:label="fills"
     inkscape:groupmode="layer"
     id="fills"
     transform="matrix(1.8793247,0,0,1.8793247,-500.5369,-76.643681)">
    <g
       id="g4886"
       transform="translate(263.44282,-600.92513)">
      <g
         transform="matrix(0.98746001,0,0,0.98746001,-22.385706,31.280778)"
         id="g4892" />
      <g
         id="g4910" />
    </g>
    <g
       id="g4923"
       transform="translate(168.74115,-642.24949)">
      <g
         transform="matrix(0.98746001,0,0,0.98746001,-22.385706,31.280778)"
         id="g4929" />
    </g>
  </g>
  <g
     style="display:none"
     inkscape:label="strokes"
     inkscape:groupmode="layer"
     id="strokes"
     transform="matrix(1.8793247,0,0,1.8793247,-500.5369,-76.643681)">
    <path
       style="fill:none;stroke:#000000;stroke-width:2.64401817;stroke-linecap:round;stroke-linejoin:round;stroke-opacity:1"
       inkscape:connector-curvature="0"
       id="path45"
       d="m 140.018,63.478 -1.593,0.894 -1.486,1.01 -1.372,1.12 -1.253,1.223 -1.127,1.322 -0.995,1.415 -0.856,1.501 -0.713,1.583 -0.561,1.659 -0.406,1.729 -0.242,1.793 -0.073,1.852 0.089,12.57 0.093,12.57 0.095,12.571 0.099,12.57 0.101,12.57 0.104,12.57 0.107,12.571 0.11,12.57 0.111,12.57 0.115,12.57 0.116,12.57 0.119,12.57 0.136,1.982 0.356,1.9 0.561,1.816 0.748,1.73 0.92,1.64 1.075,1.549 1.213,1.456 1.336,1.359 1.441,1.26 1.529,1.16 1.603,1.057 1.658,0.95 5.152,2.751 5.152,2.751 5.151,2.751 5.151,2.752 5.152,2.752 5.152,2.75 5.152,2.75 5.153,2.748 5.155,2.746 5.155,2.743 5.157,2.741 5.159,2.738 4.724,1.756 5.482,0.822 6.048,0.031 6.42,-0.621 6.601,-1.131 6.59,-1.498 6.387,-1.726 5.99,-1.811 5.403,-1.756 4.623,-1.559 3.65,-1.221 2.486,-0.741 6.988,-1.718 5.463,-1.331 4.16,-1.001 3.081,-0.731 2.225,-0.521 1.593,-0.37 1.184,-0.278 0.999,-0.244 1.036,-0.272 1.297,-0.356 1.781,-0.502 2.489,-0.706" />
    <path
       style="fill:none;stroke:#000000;stroke-width:2.64401817;stroke-linecap:round;stroke-linejoin:round;stroke-opacity:1"
       inkscape:connector-curvature="0"
       id="path47"
       d="m 246.573,75.617 -3.744,-0.684 -3.761,-0.651 -3.776,-0.625 -3.788,-0.602 -3.797,-0.584 -3.802,-0.569 -3.805,-0.559 -3.804,-0.554 -3.8,-0.552 -3.794,-0.556 -3.784,-0.563 -3.77,-0.574" />
    <path
       style="fill:none;stroke:#000000;stroke-width:2.64401817;stroke-linecap:round;stroke-linejoin:round;stroke-opacity:1"
       inkscape:connector-curvature="0"
       id="path49"
       d="m 321.312,98.245 1.737,-6.048 1.242,-5.381 0.742,-4.827 0.237,-4.389 -0.273,-4.066 -0.789,-3.856 -1.311,-3.763 -1.837,-3.783 -2.368,-3.919 -2.906,-4.17 -3.448,-4.535 -3.995,-5.016 -0.562,-0.697 -0.875,-1.071 -1.139,-1.353 -1.355,-1.546 -1.522,-1.65 -1.639,-1.664 -1.708,-1.588 -1.728,-1.422 -1.699,-1.168 -1.62,-0.823 -1.494,-0.389 -1.318,0.134 -0.397,0.521 -0.309,1.168 -0.233,1.699 -0.173,2.109 -0.126,2.403 -0.093,2.578 -0.073,2.634 -0.067,2.573 -0.075,2.391 -0.098,2.093 -0.132,1.676 -0.182,1.141 -0.754,2.701 -0.867,2.63 -0.972,2.567 -1.07,2.509 -1.161,2.459 -1.243,2.415 -1.319,2.379 -1.386,2.348 -1.446,2.324 -1.498,2.307 -1.543,2.298 -1.581,2.294" />
    <path
       style="fill:none;stroke:#000000;stroke-width:2.64401817;stroke-linecap:round;stroke-linejoin:round;stroke-opacity:1"
       inkscape:connector-curvature="0"
       id="path51"
       d="m 298.415,90.085 2.608,-5.7 1.902,-5.086 1.244,-4.591 0.635,-4.211 0.075,-3.949 -0.438,-3.804 -0.903,-3.775 -1.319,-3.864 -1.686,-4.069 -2.006,-4.392 -2.277,-4.83 -2.5,-5.387" />
    <path
       style="fill:none;stroke:#000000;stroke-width:2.64401817;stroke-linecap:round;stroke-linejoin:round;stroke-opacity:1"
       inkscape:connector-curvature="0"
       id="path53"
       d="m 291.049,34.796 0.635,-3.541 2.961,2.278" />
    <path
       style="fill:none;stroke:#000000;stroke-width:2.64401817;stroke-linecap:round;stroke-linejoin:round;stroke-opacity:1"
       inkscape:connector-curvature="0"
       id="path55"
       d="m 301.09,36.529 -4.404,-3.19" />
    <path
       style="fill:none;stroke:#000000;stroke-width:2.64401817;stroke-linecap:round;stroke-linejoin:round;stroke-opacity:1"
       inkscape:connector-curvature="0"
       id="path57"
       d="m 210.796,85.23 -2.386,-4.091 -2.388,-4.079 -2.355,-4.082 -2.283,-4.102 -2.175,-4.137 -2.031,-4.189 -1.848,-4.257 -1.63,-4.34 -1.374,-4.439 -1.082,-4.555 -0.752,-4.686 -0.387,-4.833 0.091,-1.457 0.322,-2.039 0.498,-2.494 0.618,-2.824 0.683,-3.026 0.692,-3.104 0.646,-3.053 0.545,-2.878 0.388,-2.576 0.175,-2.146 -0.093,-1.592 -0.416,-0.911 -0.838,-0.643 -0.88,-0.498 -0.917,-0.364 -0.947,-0.243 -0.971,-0.135 -0.987,-0.039 -0.998,0.045 -1.002,0.115 -0.999,0.175 -0.991,0.221 -0.974,0.254 -0.953,0.276 -3.83,1.23 -4.378,1.569 -4.774,1.892 -5.018,2.198 -5.109,2.487 -5.05,2.76 -4.837,3.016 -4.472,3.256 -3.955,3.478 -3.286,3.685 -2.465,3.874 -1.492,4.047 -0.739,5.69 0.354,5.53 1.3,5.365 2.101,5.191 2.758,5.013 3.269,4.828 3.635,4.637 3.855,4.44 3.93,4.236 3.86,4.027 3.644,3.81 3.284,3.589" />
    <path
       style="fill:none;stroke:#000000;stroke-width:2.64401817;stroke-linecap:round;stroke-linejoin:round;stroke-opacity:1"
       inkscape:connector-curvature="0"
       id="path59"
       d="m 187.089,6.907 -2.938,2.074 -3.165,2.319 -3.301,2.548 -3.346,2.759 -3.301,2.953 -3.163,3.13 -2.935,3.289 -2.616,3.432 -2.207,3.556 -1.705,3.665 -1.113,3.756 -0.431,3.829 0.15,2.745 0.493,2.954 0.786,3.115 1.025,3.225 1.215,3.285 1.351,3.297 1.435,3.258 1.469,3.169 1.451,3.031 1.38,2.844 1.257,2.607 1.084,2.319" />
    <path
       style="fill:none;stroke:#000000;stroke-width:2.64401817;stroke-linecap:round;stroke-linejoin:round;stroke-opacity:1"
       inkscape:connector-curvature="0"
       id="path61"
       d="m 665.5,373.741 1.604,-6.427 1.446,-5.787 1.27,-5.285 1.079,-4.925 0.871,-4.703 0.644,-4.622 0.403,-4.682 0.143,-4.881 -0.134,-5.22 -0.426,-5.699 -0.737,-6.319 -1.063,-7.079" />
    <path
       style="fill:none;stroke:#000000;stroke-width:2.64401817;stroke-linecap:round;stroke-linejoin:round;stroke-opacity:1"
       inkscape:connector-curvature="0"
       id="path63"
       d="m 689.512,372.026 1.287,-5.217 1.144,-5.207 0.967,-5.202 0.759,-5.199 0.52,-5.199 0.248,-5.202 -0.056,-5.207 -0.39,-5.216 -0.757,-5.228 -1.156,-5.241 -1.586,-5.259 -2.048,-5.279 -0.738,-0.339 -1.741,-0.245 -2.543,-0.159 -3.14,-0.078 -3.536,-0.003 -3.726,0.066 -3.715,0.127 -3.5,0.184 -3.082,0.235 -2.46,0.278 -1.636,0.316 -0.609,0.349 0.009,1.587 0.226,1.583 0.397,1.579 0.517,1.575 0.588,1.571 0.611,1.566 0.584,1.561 0.508,1.557 0.384,1.551 0.209,1.546 -0.014,1.54 -0.285,1.535 -0.737,2.425 -0.805,2.405 -0.859,2.388 -0.898,2.379 -0.923,2.375 -0.931,2.376 -0.926,2.383 -0.906,2.397 -0.872,2.415 -0.821,2.44 -0.757,2.471 -0.678,2.507" />
    <path
       style="fill:none;stroke:#000000;stroke-width:2.64401817;stroke-linecap:round;stroke-linejoin:round;stroke-opacity:1"
       inkscape:connector-curvature="0"
       id="path65"
       d="m 682.153,308.926 -0.484,-2.456 -1.277,-1.978 -1.92,-1.515 -2.413,-1.066 -2.753,-0.632 -2.945,-0.213 -2.986,0.193 -2.875,0.582 -2.614,0.958 -2.203,1.319 -1.642,1.665 -0.928,1.997 -0.227,1.286 -0.081,1.297 0.038,1.307 0.13,1.315 0.195,1.321 0.231,1.325 0.242,1.326 0.224,1.327 0.18,1.324 0.108,1.321 0.009,1.315 -0.118,1.307 -0.388,2.202 -0.502,2.177 -0.595,2.157 -0.666,2.142 -0.713,2.131 -0.741,2.126 -0.745,2.125 -0.728,2.129 -0.689,2.138 -0.627,2.152 -0.545,2.17 -0.439,2.194" />
    <path
       style="fill:none;stroke:#000000;stroke-width:2.64401817;stroke-linecap:round;stroke-linejoin:round;stroke-opacity:1"
       inkscape:connector-curvature="0"
       id="path67"
       d="m 657.113,307.78 8.408,1.135" />
    <path
       style="fill:none;stroke:#000000;stroke-width:2.64401817;stroke-linecap:round;stroke-linejoin:round;stroke-opacity:1"
       inkscape:connector-curvature="0"
       id="path69"
       d="m 634.559,352.162 -0.299,-1.841 -0.445,-2.184 -0.551,-2.456 -0.617,-2.654 -0.645,-2.78 -0.633,-2.832 -0.582,-2.811 -0.491,-2.718 -0.36,-2.551 -0.191,-2.313 0.018,-2 0.267,-1.615 0.544,-1.49 0.719,-1.406 0.861,-1.337 0.97,-1.286 1.046,-1.249 1.089,-1.23 1.1,-1.227 1.077,-1.239 1.021,-1.269 0.932,-1.313 0.81,-1.376 0.655,-1.453 0.058,-0.321 -0.081,-0.267 -0.198,-0.218 -0.298,-0.178 -0.377,-0.145 -0.437,-0.118 -0.478,-0.099 -0.499,-0.088 -0.501,-0.083 -0.483,-0.086 -0.446,-0.096 -0.39,-0.113 -1.519,-0.614 -1.529,-0.751 -1.536,-0.84 -1.541,-0.883 -1.542,-0.878 -1.541,-0.827 -1.536,-0.728 -1.53,-0.582 -1.52,-0.389 -1.507,-0.149 -1.491,0.138 -1.473,0.472 -3.881,2.431 -3.123,3.343 -2.441,4.092 -1.832,4.679 -1.298,5.103 -0.837,5.362 -0.452,5.459 -0.141,5.392 0.097,5.162 0.259,4.77 0.348,4.213 0.362,3.494" />
    <path
       style="fill:none;stroke:#000000;stroke-width:2.64401817;stroke-linecap:round;stroke-linejoin:round;stroke-opacity:1"
       inkscape:connector-curvature="0"
       id="path71"
       d="m 621.876,301.265 -3.649,6.318 -3.019,5.45 -2.435,4.769 -1.896,4.275 -1.403,3.969 -0.955,3.85 -0.552,3.92 -0.194,4.175 0.117,4.62 0.384,5.25 0.605,6.069 0.781,7.076" />
    <path
       style="fill:none;stroke:#000000;stroke-width:2.64401817;stroke-linecap:round;stroke-linejoin:round;stroke-opacity:1"
       inkscape:connector-curvature="0"
       id="path73"
       d="m 640.854,307.532 -18.978,-6.267 -3.417,-1.576" />
    <path
       style="fill:none;stroke:#000000;stroke-width:2.64401817;stroke-linecap:round;stroke-linejoin:round;stroke-opacity:1"
       inkscape:connector-curvature="0"
       id="path75"
       d="m 605.52,353.189 -5.281,2.184 -3.222,2.488 -1.44,2.717 0.065,2.867 1.295,2.941 2.248,2.937 2.924,2.858 3.325,2.7 3.449,2.465 3.297,2.155 2.867,1.766 2.163,1.3 5.637,3.058 5.878,2.518 6.08,2.008 6.242,1.525 6.365,1.072 6.449,0.645 6.492,0.248 6.497,-0.122 6.461,-0.462 6.385,-0.775 6.272,-1.059 6.117,-1.315 3.171,-1.131 2.419,-1.637 1.717,-2.05 1.068,-2.371 0.469,-2.602 -0.077,-2.739 -0.573,-2.785 -1.016,-2.739 -1.408,-2.601 -1.749,-2.372 -2.038,-2.05 -2.274,-1.636" />
    <path
       style="fill:none;stroke:#000000;stroke-width:2.64401817;stroke-linecap:round;stroke-linejoin:round;stroke-opacity:1"
       inkscape:connector-curvature="0"
       id="path77"
       d="m 698.868,369.511 -4.032,1.896 -5.221,1.154 -6.177,0.505 -6.899,-0.049 -7.388,-0.509 -7.642,-0.875 -7.663,-1.147 -7.452,-1.325 -7.005,-1.408 -6.326,-1.397 -5.413,-1.293 -4.266,-1.093 -1.293,-0.325 -1.596,-0.384 -1.824,-0.452 -1.979,-0.526 -2.06,-0.609 -2.068,-0.699 -2.003,-0.797 -1.864,-0.903 -1.651,-1.016 -1.365,-1.138 -1.006,-1.267 -0.573,-1.403" />
    <path
       style="fill:none;stroke:#000000;stroke-width:2.64401817;stroke-linecap:round;stroke-linejoin:round;stroke-opacity:1"
       inkscape:connector-curvature="0"
       id="path79"
       d="m 604.056,374.59 6.332,3.364 6.74,2.958 7.081,2.56 7.352,2.169 7.558,1.788 7.695,1.413 7.765,1.047 7.767,0.688 7.702,0.339 7.568,-0.004 7.369,-0.339 7.1,-0.665" />
    <path
       style="fill:none;stroke:#000000;stroke-width:2.64401817;stroke-linecap:round;stroke-linejoin:round;stroke-opacity:1"
       inkscape:connector-curvature="0"
       id="path81"
       d="m 650.666,349.394 -1.383,-0.199 -1.385,-0.182 -1.385,-0.168 -1.387,-0.154 -1.388,-0.141 -1.389,-0.13 -1.39,-0.119 -1.391,-0.11 -1.392,-0.103 -1.392,-0.095 -1.394,-0.089 -1.394,-0.085" />
    <path
       style="fill:none;stroke:#000000;stroke-width:2.64401817;stroke-linecap:round;stroke-linejoin:round;stroke-opacity:1"
       inkscape:connector-curvature="0"
       id="path83"
       d="m 266.883,381.322 -0.767,-1.471 -0.743,-1.486 -0.726,-1.496 -0.718,-1.501 -0.719,-1.502 -0.726,-1.496 -0.743,-1.486 -0.766,-1.47 -0.8,-1.451 -0.84,-1.424 -0.888,-1.395 -0.946,-1.358 -0.876,-1.109 -0.951,-1.053 -1.008,-1.008 -1.046,-0.979 -1.067,-0.962 -1.07,-0.958 -1.053,-0.968 -1.021,-0.991 -0.968,-1.027 -0.898,-1.076 -0.81,-1.139 -0.705,-1.215 -0.782,-1.75 -0.616,-1.819 -0.486,-1.873 -0.392,-1.911 -0.333,-1.934 -0.31,-1.942 -0.323,-1.934 -0.373,-1.911 -0.457,-1.874 -0.578,-1.819 -0.734,-1.751 -0.927,-1.667 -1.776,-1.498 -2.662,-0.622 -3.351,0.112 -3.841,0.707 -4.135,1.161 -4.23,1.473 -4.128,1.645 -3.828,1.677 -3.331,1.568 -2.635,1.317 -1.742,0.928 -0.652,0.396 -0.468,1.327 -0.169,1.354 0.089,1.376 0.303,1.395 0.475,1.409 0.603,1.421 0.69,1.429 0.732,1.432 0.732,1.432 0.689,1.429 0.604,1.42 0.475,1.41 0.521,2.153 0.456,2.449 0.408,2.683 0.378,2.854 0.367,2.964 0.373,3.01 0.397,2.994 0.439,2.915 0.499,2.774 0.578,2.57 0.673,2.304 0.788,1.975 1.196,2.444 1.257,2.435 1.308,2.427 1.35,2.419 1.383,2.413 1.408,2.405 1.422,2.399 1.429,2.393 1.425,2.387 1.413,2.382 1.391,2.377 1.361,2.373" />
    <path
       style="fill:none;stroke:#000000;stroke-width:2.64401817;stroke-linecap:round;stroke-linejoin:round;stroke-opacity:1"
       inkscape:connector-curvature="0"
       id="path85"
       d="m 230.535,327.055 0.708,2.411 0.674,2.424 0.65,2.433 0.64,2.436 0.639,2.437 0.65,2.432 0.674,2.424 0.708,2.412 0.754,2.394 0.811,2.374 0.88,2.348 0.96,2.318 0.942,1.859 1.689,3.039 2.284,3.977 2.731,4.674 3.025,5.129 3.172,5.342 3.165,5.314 3.011,5.045 2.705,4.534 2.248,3.78 1.642,2.787 0.885,1.551" />
    <path
       style="fill:none;stroke:#000000;stroke-width:2.64401817;stroke-linecap:round;stroke-linejoin:round;stroke-opacity:1"
       inkscape:connector-curvature="0"
       id="path87"
       d="m 255.209,322.453 5.434,4.389 4.441,3.743 3.571,3.267 2.825,2.956 2.201,2.813 1.701,2.837 1.325,3.028 1.071,3.386 0.941,3.912 0.934,4.605 1.05,5.464 1.29,6.491" />
    <path
       style="fill:none;stroke:#000000;stroke-width:2.64401817;stroke-linecap:round;stroke-linejoin:round;stroke-opacity:1"
       inkscape:connector-curvature="0"
       id="path89"
       d="m 311.438,367.258 -0.487,-2.288 -0.437,-2.305 -0.404,-2.316 -0.387,-2.32 -0.388,-2.321 -0.403,-2.316 -0.438,-2.304 -0.487,-2.289 -0.553,-2.267 -0.637,-2.239 -0.737,-2.208 -0.853,-2.17 -0.584,-1.212 -0.68,-1.154 -0.765,-1.102 -0.837,-1.058 -0.897,-1.02 -0.945,-0.99 -0.979,-0.966 -1.002,-0.95 -1.012,-0.94 -1.009,-0.938 -0.995,-0.943 -0.968,-0.954 -1.612,-1.691 -1.579,-1.747 -1.559,-1.781 -1.554,-1.794 -1.565,-1.783 -1.588,-1.751 -1.627,-1.698 -1.679,-1.622 -1.747,-1.523 -1.829,-1.404 -1.926,-1.261 -2.036,-1.097 -0.89,-0.312 -0.911,-0.109 -0.925,0.07 -0.935,0.224 -0.941,0.351 -0.942,0.453 -0.938,0.53 -0.931,0.582 -0.918,0.608 -0.901,0.608 -0.879,0.583 -0.854,0.534 -1.767,0.953 -1.932,0.896 -2.036,0.865 -2.081,0.861 -2.065,0.886 -1.989,0.937 -1.853,1.016 -1.656,1.122 -1.4,1.255 -1.083,1.417 -0.706,1.605 -0.27,1.82 0.255,1.797 0.77,1.525 1.199,1.304 1.545,1.13 1.805,1.006 1.982,0.93 2.072,0.905 2.079,0.926 2.001,0.999 1.839,1.119 1.591,1.288 1.259,1.507 0.604,1.12 0.414,1.182 0.253,1.234 0.122,1.278 0.019,1.312 -0.053,1.338 -0.097,1.355 -0.111,1.362 -0.097,1.36 -0.052,1.35 0.02,1.33 0.124,1.301 0.234,1.529 0.26,1.525 0.282,1.522 0.3,1.518 0.315,1.515 0.326,1.514 0.333,1.512 0.337,1.512 0.337,1.512 0.333,1.512 0.326,1.514 0.315,1.515" />
    <path
       style="fill:none;stroke:#000000;stroke-width:2.64401817;stroke-linecap:round;stroke-linejoin:round;stroke-opacity:1"
       inkscape:connector-curvature="0"
       id="path91"
       d="m 244.45,326.291 10.759,-3.838 19.044,-13.917" />
    <path
       style="fill:none;stroke:#000000;stroke-width:2.64401817;stroke-linecap:round;stroke-linejoin:round;stroke-opacity:1"
       inkscape:connector-curvature="0"
       id="path93"
       d="m 206.967,336.546 -6.537,0.942 -5.15,1.02 -3.912,1.184 -2.822,1.435 -1.878,1.775 -1.085,2.201 -0.437,2.714 0.061,3.316 0.411,4.004 0.615,4.78 0.669,5.642 0.576,6.593 0.362,5.668 0.279,4.377 0.283,3.348 0.376,2.58 0.557,2.075 0.825,1.83 1.182,1.848 1.626,2.126 2.158,2.668 2.779,3.469 3.486,4.533 4.283,5.859" />
    <path
       style="fill:none;stroke:#000000;stroke-width:2.64401817;stroke-linecap:round;stroke-linejoin:round;stroke-opacity:1"
       inkscape:connector-curvature="0"
       id="path95"
       d="m 212.364,372.789 -4.373,-8.318 0.17,-9.657" />
    <path
       style="fill:none;stroke:#000000;stroke-width:2.64401817;stroke-linecap:round;stroke-linejoin:round;stroke-opacity:1"
       inkscape:connector-curvature="0"
       id="path97"
       d="m 215.991,401.626 -1.379,1.324 -2.66,2.55 -3.514,3.536 -3.945,4.283 -3.947,4.788 -3.526,5.053 -2.678,5.078 -1.405,4.863 0.295,4.408 2.419,3.712 4.971,2.776 7.947,1.599 8.142,0.328 8.416,-0.519 8.596,-1.297 8.684,-2.004 8.681,-2.641 8.586,-3.208 8.399,-3.704 8.119,-4.132 7.748,-4.487 7.285,-4.774 6.73,-4.99 6.083,-5.135 2.095,-1.915 2.765,-2.638 3.154,-3.232 3.261,-3.692 3.086,-4.021 2.629,-4.218 1.891,-4.283 0.871,-4.217 -0.431,-4.017 -2.015,-3.687 -3.879,-3.225 -6.027,-2.63" />
    <path
       style="fill:none;stroke:#000000;stroke-width:2.64401817;stroke-linecap:round;stroke-linejoin:round;stroke-opacity:1"
       inkscape:connector-curvature="0"
       id="path99"
       d="m 312.943,367.737 -0.232,1.872 -0.847,1.853 -1.359,1.819 -1.77,1.766 -2.077,1.699 -2.282,1.615 -2.385,1.514 -2.386,1.396 -2.284,1.264 -2.079,1.114 -1.773,0.948 -1.364,0.765 -4.919,2.877 -4.972,2.815 -5.02,2.751 -5.066,2.685 -5.108,2.616 -5.147,2.546 -5.181,2.473 -5.214,2.398 -5.241,2.32 -5.265,2.239 -5.287,2.158 -5.304,2.073 -2.406,0.96 -2.553,1.07 -2.674,1.132 -2.769,1.146 -2.839,1.111 -2.884,1.03 -2.904,0.898 -2.898,0.72 -2.866,0.493 -2.811,0.217 -2.728,-0.106 -2.621,-0.477" />
    <path
       style="fill:none;stroke:#000000;stroke-width:2.64401817;stroke-linecap:round;stroke-linejoin:round;stroke-opacity:1"
       inkscape:connector-curvature="0"
       id="path101"
       d="m 213.853,445.305 9.285,-2.256 9.485,-2.712 9.602,-3.155 9.639,-3.585 9.595,-4.004 9.468,-4.409 9.262,-4.803 8.972,-5.184 8.602,-5.552 8.151,-5.908 7.619,-6.252 7.004,-6.583" />
    <path
       style="fill:none;stroke:#000000;stroke-width:2.64401817;stroke-linecap:round;stroke-linejoin:round;stroke-opacity:1"
       inkscape:connector-curvature="0"
       id="path103"
       d="m 267.691,374.449 -0.044,0.017 -3.625,1.509" />
    <path
       style="fill:none;stroke:#000000;stroke-width:2.64401817;stroke-linecap:round;stroke-linejoin:round;stroke-opacity:1"
       inkscape:connector-curvature="0"
       id="path105"
       d="m 624.314,485.386 0.381,1.129 0.549,1.266 0.66,1.359 0.716,1.404 0.715,1.405 0.658,1.359 0.544,1.267 0.375,1.13 0.15,0.947 -0.132,0.718 -0.47,0.443 -0.864,0.122 -1.028,-0.178 -1.118,-0.412 -1.184,-0.606 -1.228,-0.763 -1.251,-0.879 -1.25,-0.959 -1.229,-0.999 -1.184,-1 -1.118,-0.963 -1.03,-0.888 -0.919,-0.773 -0.786,-0.62 -2.771,-2.012 -2.941,-2.057 -3.064,-2.107 -3.14,-2.161 -3.169,-2.221 -3.153,-2.283 -3.089,-2.351 -2.978,-2.422 -2.821,-2.499 -2.617,-2.58 -2.367,-2.664 -2.069,-2.753" />
    <path
       style="fill:none;stroke:#000000;stroke-width:2.64401817;stroke-linecap:round;stroke-linejoin:round;stroke-opacity:1"
       inkscape:connector-curvature="0"
       id="path107"
       d="m 568.708,476.622 1.517,2.531 2.645,3.183 3.57,3.677 4.293,4.015 4.814,4.195 5.133,4.218 5.25,4.083 5.164,3.791 4.876,3.343 4.386,2.736 3.694,1.973 2.8,1.052" />
    <path
       style="fill:none;stroke:#000000;stroke-width:2.64401817;stroke-linecap:round;stroke-linejoin:round;stroke-opacity:1"
       inkscape:connector-curvature="0"
       id="path109"
       d="m 590.77,460.081 -0.904,0.022 -0.925,-0.037 -0.94,-0.077 -0.947,-0.097 -0.948,-0.097 -0.94,-0.077 -0.925,-0.037 -0.903,0.022 -0.874,0.102 -0.837,0.201 -0.793,0.32 -0.742,0.459 -5.537,4.804 -3.723,4.653 -2.101,4.501 -0.67,4.344 0.571,4.186 1.62,4.026 2.478,3.863 3.145,3.699 3.62,3.53 3.906,3.362 3.998,3.189 3.901,3.014 1.605,1.255 1.78,1.384 1.933,1.441 2.061,1.423 2.165,1.333 2.243,1.169 2.299,0.932 2.329,0.62 2.335,0.237 2.317,-0.222 2.275,-0.752 2.207,-1.357 1.278,-1.115 1.145,-1.233 1.032,-1.336 0.936,-1.42 0.861,-1.488 0.804,-1.539 0.766,-1.573 0.747,-1.59 0.747,-1.59 0.766,-1.573 0.804,-1.539 0.861,-1.488" />
    <path
       style="fill:none;stroke:#000000;stroke-width:2.64401817;stroke-linecap:round;stroke-linejoin:round;stroke-opacity:1"
       inkscape:connector-curvature="0"
       id="path111"
       d="m 644.315,455.07 0.435,0.886 0.579,0.957 0.674,1.005 0.72,1.03 0.718,1.031 0.666,1.008 0.565,0.963 0.415,0.894 0.217,0.801 -0.031,0.685 -0.328,0.546 -0.673,0.384 -0.651,0.102 -0.777,-0.069 -0.876,-0.213 -0.947,-0.331 -0.99,-0.419 -1.006,-0.482 -0.993,-0.516 -0.954,-0.523 -0.885,-0.504 -0.791,-0.456 -0.668,-0.381 -0.517,-0.279 -2.544,-1.301 -2.532,-1.328 -2.52,-1.354 -2.509,-1.378 -2.496,-1.401 -2.484,-1.424 -2.471,-1.446 -2.458,-1.467 -2.445,-1.488 -2.432,-1.506 -2.419,-1.525 -2.405,-1.543 -0.536,-0.323 -0.831,-0.48 -1.059,-0.612 -1.223,-0.719 -1.319,-0.801 -1.351,-0.858 -1.316,-0.89 -1.215,-0.898 -1.049,-0.881 -0.817,-0.838 -0.518,-0.771 -0.154,-0.679 0.146,-0.568 0.315,-0.418 0.462,-0.29 0.583,-0.184 0.68,-0.098 0.754,-0.034 0.803,0.01 0.827,0.032 0.827,0.033 0.803,0.013 0.755,-0.028 0.682,-0.091" />
    <path
       style="fill:none;stroke:#000000;stroke-width:2.64401817;stroke-linecap:round;stroke-linejoin:round;stroke-opacity:1"
       inkscape:connector-curvature="0"
       id="path113"
       d="m 587.979,452.224 0.484,1.026 0.651,0.989 0.792,0.952 0.907,0.915 0.998,0.878 1.061,0.84 1.1,0.803 1.113,0.765 1.1,0.727 1.06,0.688 0.997,0.651 0.906,0.611 2.61,1.86 2.919,2.131 3.177,2.318 3.388,2.42 3.546,2.437 3.657,2.369 3.716,2.217 3.727,1.979 3.687,1.657 3.597,1.25 3.459,0.757 3.269,0.181" />
    <path
       style="fill:none;stroke:#000000;stroke-width:2.64401817;stroke-linecap:round;stroke-linejoin:round;stroke-opacity:1"
       inkscape:connector-curvature="0"
       id="path115"
       d="m 597.114,435.278 -9.135,16.946 2.791,7.857" />
    <path
       style="fill:none;stroke:#000000;stroke-width:2.64401817;stroke-linecap:round;stroke-linejoin:round;stroke-opacity:1"
       inkscape:connector-curvature="0"
       id="path117"
       d="m 620.265,483.64 4.013,1.616 3.484,0.949 3.023,0.311 2.628,-0.299 2.3,-0.881 2.039,-1.434 1.846,-1.96 1.72,-2.456 1.66,-2.925 1.668,-3.364 1.742,-3.777 1.884,-4.16" />
    <path
       style="fill:none;stroke:#000000;stroke-width:2.64401817;stroke-linecap:round;stroke-linejoin:round;stroke-opacity:1"
       inkscape:connector-curvature="0"
       id="path119"
       d="m 657.754,422.937 0.497,0.739 0.62,0.777 0.702,0.803 0.739,0.817 0.734,0.821 0.686,0.811 0.594,0.792 0.459,0.761 0.281,0.717 0.06,0.664 -0.205,0.597 -0.511,0.521 -0.638,0.298 -0.794,0.14 -0.92,0.005 -1.012,-0.108 -1.073,-0.199 -1.1,-0.265 -1.095,-0.309 -1.058,-0.332 -0.988,-0.33 -0.885,-0.306 -0.751,-0.259 -0.584,-0.19 -2.693,-0.835 -2.683,-0.878 -2.673,-0.919 -2.662,-0.958 -2.649,-0.997 -2.636,-1.035 -2.622,-1.07 -2.607,-1.105 -2.59,-1.138 -2.573,-1.17 -2.555,-1.201 -2.536,-1.23 -0.541,-0.251 -0.858,-0.386 -1.106,-0.502 -1.28,-0.601 -1.383,-0.679 -1.416,-0.739 -1.376,-0.78 -1.266,-0.802 -1.083,-0.806 -0.829,-0.79 -0.504,-0.755 -0.107,-0.702 0.179,-0.545 0.314,-0.434 0.43,-0.341 0.527,-0.261 0.606,-0.197 0.664,-0.149 0.704,-0.115 0.724,-0.097 0.725,-0.095 0.707,-0.106 0.67,-0.135 0.613,-0.177" />
    <path
       style="fill:none;stroke:#000000;stroke-width:2.64401817;stroke-linecap:round;stroke-linejoin:round;stroke-opacity:1"
       inkscape:connector-curvature="0"
       id="path121"
       d="m 608.284,409.573 -0.678,1.576 -0.845,1.607 -0.951,1.627 -1,1.64 -0.992,1.642 -0.925,1.637 -0.799,1.622 -0.617,1.599 -0.375,1.565 -0.076,1.524 0.282,1.474 0.697,1.413 2.002,2.132 3.242,2.43 4.249,2.625 5.023,2.715 5.565,2.701 5.873,2.582 5.95,2.36 5.793,2.032 5.404,1.602 4.781,1.067 3.926,0.427 2.839,-0.317" />
    <path
       style="fill:none;stroke:#000000;stroke-width:2.64401817;stroke-linecap:round;stroke-linejoin:round;stroke-opacity:1"
       inkscape:connector-curvature="0"
       id="path123"
       d="m 643.986,455.178 4.098,-1.297 3.184,-0.965 2.404,-0.77 1.758,-0.709 1.248,-0.783 0.871,-0.992 0.63,-1.336 0.522,-1.816 0.55,-2.43 0.712,-3.178 1.008,-4.063 1.439,-5.082" />
    <path
       style="fill:none;stroke:#000000;stroke-width:2.64401817;stroke-linecap:round;stroke-linejoin:round;stroke-opacity:1"
       inkscape:connector-curvature="0"
       id="path125"
       d="m 602.005,428.499 2.746,5.156" />
    <path
       style="fill:none;stroke:#000000;stroke-width:2.64401817;stroke-linecap:round;stroke-linejoin:round;stroke-opacity:1"
       inkscape:connector-curvature="0"
       id="path127"
       d="m 672.275,396.573 -0.315,0.765 -0.609,0.572 -0.848,0.403 -1.038,0.256 -1.173,0.132 -1.258,0.032 -1.291,-0.045 -1.27,-0.099 -1.198,-0.131 -1.075,-0.139 -0.898,-0.124 -0.669,-0.086 -2.77,-0.334 -2.77,-0.393 -2.767,-0.45 -2.761,-0.507 -2.755,-0.56 -2.745,-0.614 -2.733,-0.666 -2.719,-0.716 -2.703,-0.765 -2.683,-0.812 -2.662,-0.858 -2.639,-0.904 -0.565,-0.197 -1.002,-0.36 -1.326,-0.5 -1.538,-0.615 -1.636,-0.709 -1.619,-0.777 -1.49,-0.823 -1.247,-0.845 -0.891,-0.845 -0.422,-0.819 0.162,-0.772 0.858,-0.701" />
    <path
       style="fill:none;stroke:#000000;stroke-width:2.64401817;stroke-linecap:round;stroke-linejoin:round;stroke-opacity:1"
       inkscape:connector-curvature="0"
       id="path129"
       d="m 615.917,383.644 -0.423,1.649 -0.558,1.682 -0.647,1.704 -0.687,1.716 -0.679,1.718 -0.623,1.708 -0.52,1.69 -0.368,1.66 -0.17,1.619 0.078,1.57 0.373,1.508 0.715,1.438 2.065,2.158 3.269,2.145 4.252,2.084 5.013,1.974 5.551,1.817 5.867,1.613 5.962,1.362 5.833,1.061 5.484,0.715 4.911,0.32 4.118,-0.122 3.101,-0.612 1.629,-0.869 1.345,-1.329 1.069,-1.712 0.799,-2.019 0.536,-2.249 0.278,-2.403 0.027,-2.479 -0.218,-2.481 -0.456,-2.404 -0.688,-2.251 -0.914,-2.022 -1.134,-1.717" />
    <path
       style="fill:none;stroke:#000000;stroke-width:2.64401817;stroke-linecap:round;stroke-linejoin:round;stroke-opacity:1"
       inkscape:connector-curvature="0"
       id="path131"
       d="m 612.408,403.306 2.739,3.615" />
    <path
       style="fill:none;stroke:#000000;stroke-width:2.64401817;stroke-linecap:round;stroke-linejoin:round;stroke-opacity:1"
       inkscape:connector-curvature="0"
       id="path133"
       d="m 657.34,423.147 0.414,-0.21 10.08,-5.116" />
    <path
       style="fill:none;stroke:#000000;stroke-width:2.64401817;stroke-linecap:round;stroke-linejoin:round;stroke-opacity:1"
       inkscape:connector-curvature="0"
       id="path135"
       d="m 313.081,442.445 1.297,-2.896 0.79,-3.02 0.306,-3.088 -0.154,-3.099 -0.589,-3.052 -1.003,-2.948 -1.391,-2.789 -1.756,-2.571 -2.098,-2.297 -2.415,-1.965 -2.709,-1.577 -2.98,-1.132" />
    <path
       style="fill:none;stroke:#000000;stroke-width:2.64401817;stroke-linecap:round;stroke-linejoin:round;stroke-opacity:1"
       inkscape:connector-curvature="0"
       id="path137"
       d="m 306.963,414.576 -0.172,1.412 -0.488,1.356 -0.757,1.296 -0.98,1.235 -1.159,1.172 -1.291,1.107 -1.377,1.04 -1.417,0.971 -1.412,0.9 -1.361,0.827 -1.265,0.753 -1.121,0.676 -3.176,1.903 -3.233,1.837 -3.286,1.768 -3.335,1.695 -3.379,1.619 -3.419,1.541 -3.454,1.459 -3.486,1.374 -3.511,1.287 -3.534,1.196 -3.551,1.102 -3.565,1.006 -0.869,0.227 -1.384,0.337 -1.767,0.389 -2.017,0.385 -2.136,0.323 -2.121,0.203 -1.976,0.025 -1.697,-0.211 -1.287,-0.503 -0.744,-0.854 -0.069,-1.262 0.738,-1.728" />
    <path
       style="fill:none;stroke:#000000;stroke-width:2.64401817;stroke-linecap:round;stroke-linejoin:round;stroke-opacity:1"
       inkscape:connector-curvature="0"
       id="path139"
       d="m 236.95,444.601 0.643,2.102 0.543,2.162 0.478,2.202 0.445,2.222 0.445,2.222 0.479,2.201 0.545,2.162 0.645,2.101 0.778,2.022 0.943,1.92 1.142,1.801 1.374,1.661 1.087,0.851 1.323,0.561 1.512,0.309 1.655,0.092 1.754,-0.09 1.805,-0.235 1.812,-0.345 1.773,-0.418 1.688,-0.456 1.557,-0.458 1.381,-0.424 1.158,-0.353 4.481,-1.386 4.553,-1.527 4.587,-1.68 4.585,-1.842 4.545,-2.013 4.469,-2.194 4.356,-2.384 4.206,-2.583 4.018,-2.793 3.794,-3.011 3.534,-3.24 3.235,-3.477" />
    <path
       style="fill:none;stroke:#000000;stroke-width:2.64401817;stroke-linecap:round;stroke-linejoin:round;stroke-opacity:1"
       inkscape:connector-curvature="0"
       id="path141"
       d="m 247.498,470.47 2.015,0.484 1.879,0.482 1.765,0.467 1.675,0.444 1.61,0.409 1.568,0.366 1.549,0.31 1.555,0.247 1.585,0.171 1.637,0.086 1.713,-0.008 1.815,-0.114" />
    <path
       style="fill:none;stroke:#000000;stroke-width:2.64401817;stroke-linecap:round;stroke-linejoin:round;stroke-opacity:1"
       inkscape:connector-curvature="0"
       id="path143"
       d="m 332.384,469.09 0.829,-3.251 0.276,-3.247 -0.24,-3.195 -0.72,-3.095 -1.162,-2.945 -1.57,-2.748 -1.939,-2.501 -2.274,-2.206 -2.571,-1.862 -2.832,-1.47 -3.056,-1.029 -3.245,-0.539" />
    <path
       style="fill:none;stroke:#000000;stroke-width:2.64401817;stroke-linecap:round;stroke-linejoin:round;stroke-opacity:1"
       inkscape:connector-curvature="0"
       id="path145"
       d="m 321.75,442.664 -0.463,3.224 -1.701,3.482 -2.734,3.656 -3.563,3.749 -4.185,3.76 -4.604,3.689 -4.818,3.535 -4.825,3.301 -4.629,2.983 -4.226,2.584 -3.62,2.102 -2.808,1.54 -3.318,1.75 -3.196,1.647 -3.009,1.45 -2.76,1.159 -2.446,0.774 -2.068,0.295 -1.627,-0.279 -1.122,-0.945 -0.552,-1.706 0.08,-2.561 0.778,-3.51 1.538,-4.553" />
    <path
       style="fill:none;stroke:#000000;stroke-width:2.64401817;stroke-linecap:round;stroke-linejoin:round;stroke-opacity:1"
       inkscape:connector-curvature="0"
       id="path147"
       d="m 258.745,485.988 1.021,1.984 0.929,2.149 0.872,2.256 0.852,2.305 0.867,2.295 0.919,2.227 1.008,2.101 1.131,1.917 1.293,1.675 1.489,1.374 1.722,1.015 1.992,0.599 4.684,0.08 5.265,-1.147 5.691,-2.198 5.961,-3.071 6.076,-3.769 6.035,-4.289 5.838,-4.632 5.487,-4.8 4.98,-4.789 4.317,-4.602 3.499,-4.238 2.525,-3.698" />
    <path
       style="fill:none;stroke:#000000;stroke-width:2.64401817;stroke-linecap:round;stroke-linejoin:round;stroke-opacity:1"
       inkscape:connector-curvature="0"
       id="path149"
       d="m 272.839,507.885 1.769,0.061 1.75,0.086 1.735,0.098 1.721,0.097 1.71,0.086 1.701,0.061 1.694,0.024 1.69,-0.024 1.688,-0.084 1.688,-0.157 1.689,-0.242 1.695,-0.339" />
    <path
       style="fill:none;stroke:#000000;stroke-width:2.64401817;stroke-linecap:round;stroke-linejoin:round;stroke-opacity:1"
       inkscape:connector-curvature="0"
       id="path151"
       d="m 355.295,494.667 0.337,-3.513 -0.153,-3.47 -0.615,-3.371 -1.051,-3.215 -1.462,-3.002 -1.846,-2.733 -2.204,-2.408 -2.535,-2.026 -2.84,-1.588 -3.119,-1.092 -3.371,-0.541 -3.598,0.067" />
    <path
       style="fill:none;stroke:#000000;stroke-width:2.64401817;stroke-linecap:round;stroke-linejoin:round;stroke-opacity:1"
       inkscape:connector-curvature="0"
       id="path153"
       d="m 341.035,468.487 -0.097,3.593 -1.191,3.948 -2.114,4.206 -2.867,4.365 -3.451,4.429 -3.863,4.393 -4.107,4.261 -4.179,4.032 -4.083,3.704 -3.814,3.28 -3.378,2.757 -2.77,2.138 -3.275,2.414 -3.025,2.137 -2.751,1.787 -2.453,1.365 -2.133,0.869 -1.789,0.3 -1.421,-0.34 -1.03,-1.054 -0.616,-1.841 -0.177,-2.7 0.283,-3.633 0.769,-4.638" />
    <path
       style="fill:none;stroke:#000000;stroke-width:2.64401817;stroke-linecap:round;stroke-linejoin:round;stroke-opacity:1"
       inkscape:connector-curvature="0"
       id="path155"
       d="m 306.684,540.027 5.133,-2.192 5.285,-2.806 5.336,-3.357 5.291,-3.844 5.146,-4.269 4.902,-4.63 4.561,-4.928 4.12,-5.163 3.582,-5.335 2.944,-5.444 2.208,-5.489 1.373,-5.471" />
    <path
       style="fill:none;stroke:#000000;stroke-width:2.64401817;stroke-linecap:round;stroke-linejoin:round;stroke-opacity:1"
       inkscape:connector-curvature="0"
       id="path157"
       d="m 286.168,521.456 15.303,17.993 2.069,0.887" />
    <path
       style="fill:none;stroke:#000000;stroke-width:2.64401817;stroke-linecap:round;stroke-linejoin:round;stroke-opacity:1"
       inkscape:connector-curvature="0"
       id="path159"
       d="m 306.684,540.027 3.158,-0.529 2.829,-0.487 2.551,-0.476 2.326,-0.499 2.153,-0.554 2.032,-0.644 1.964,-0.764 1.948,-0.919 1.983,-1.106 2.072,-1.327 2.212,-1.579 2.405,-1.865" />
    <path
       style="fill:none;stroke:#000000;stroke-width:2.64401817;stroke-linecap:round;stroke-linejoin:round;stroke-opacity:1"
       inkscape:connector-curvature="0"
       id="path161"
       d="m 355.758,491.905 3.281,-0.818 2.716,-0.427 2.183,-0.046 1.677,0.325 1.202,0.686 0.756,1.037 0.338,1.378 -0.049,1.709 -0.407,2.03 -0.737,2.341 -1.036,2.642 -1.307,2.933 -1.618,3.309 -1.733,3.242 -1.842,3.177 -1.942,3.114 -2.037,3.052 -2.124,2.995 -2.203,2.938 -2.276,2.884 -2.341,2.833 -2.4,2.783 -2.45,2.736 -2.494,2.691" />
    <path
       style="fill:none;stroke:#000000;stroke-width:2.64401817;stroke-linecap:round;stroke-linejoin:round;stroke-opacity:1"
       inkscape:connector-curvature="0"
       id="path163"
       d="m 376.192,543.138 1.522,-2.503 1.612,-2.839 1.631,-3.115 1.577,-3.331 1.453,-3.488 1.257,-3.584 0.99,-3.621 0.651,-3.598 0.242,-3.516 -0.24,-3.372 -0.793,-3.17 -1.418,-2.908 -1.132,-1.585 -1.276,-1.455 -1.399,-1.343 -1.502,-1.249 -1.584,-1.175 -1.646,-1.119 -1.688,-1.081 -1.708,-1.062 -1.709,-1.062 -1.688,-1.079 -1.648,-1.117 -1.587,-1.171" />
    <path
       style="fill:none;stroke:#000000;stroke-width:2.64401817;stroke-linecap:round;stroke-linejoin:round;stroke-opacity:1"
       inkscape:connector-curvature="0"
       id="path165"
       d="m 367.209,545.37 2.061,-2.856 2.086,-2.932 2.074,-3.005 2.026,-3.076 1.94,-3.146 1.817,-3.215 1.657,-3.28 1.459,-3.345 1.224,-3.408 0.953,-3.47 0.645,-3.528 0.298,-3.586" />
    <path
       style="fill:none;stroke:#000000;stroke-width:2.64401817;stroke-linecap:round;stroke-linejoin:round;stroke-opacity:1"
       inkscape:connector-curvature="0"
       id="path167"
       d="m 430.085,477.902 -1.133,9.406 0.982,8.014 2.837,6.714 4.429,5.5 5.76,4.378 6.827,3.343 7.635,2.398 8.178,1.543 8.461,0.777 8.482,0.099 8.241,-0.489 7.737,-0.988 3.157,-0.562 3.331,-0.7 3.441,-0.857 3.488,-1.031 3.471,-1.223 3.39,-1.433 3.246,-1.66 3.037,-1.905 2.766,-2.167 2.43,-2.448 2.03,-2.746 1.568,-3.061 0.569,-1.643 0.4,-1.685 0.247,-1.72 0.111,-1.746 -0.006,-1.764 -0.107,-1.774 -0.191,-1.776 -0.257,-1.769 -0.306,-1.755 -0.338,-1.733 -0.353,-1.702 -0.35,-1.663" />
    <path
       style="fill:none;stroke:#000000;stroke-width:2.64401817;stroke-linecap:round;stroke-linejoin:round;stroke-opacity:1"
       inkscape:connector-curvature="0"
       id="path169"
       d="m 533.993,481.413 -2.416,6.456 -4.089,5.314 -5.489,4.258 -6.616,3.287 -7.473,2.403 -8.055,1.604 -8.367,0.891 -8.405,0.264 -8.171,-0.277 -7.665,-0.733 -6.887,-1.103 -5.836,-1.386 -2.867,-0.877 -2.826,-0.984 -2.753,-1.111 -2.653,-1.252 -2.521,-1.41 -2.362,-1.585 -2.173,-1.776 -1.954,-1.985 -1.706,-2.208 -1.428,-2.45 -1.122,-2.707 -0.785,-2.981" />
    <path
       style="fill:none;stroke:#000000;stroke-width:2.64401817;stroke-linecap:round;stroke-linejoin:round;stroke-opacity:1"
       inkscape:connector-curvature="0"
       id="path171"
       d="m 428.881,464.507 0.543,8.381 2.786,6.899 4.69,5.534 6.255,4.286 7.485,3.155 8.374,2.141 8.927,1.245 9.142,0.466 9.018,-0.197 8.557,-0.741 7.757,-1.169 6.62,-1.479 3.811,-1.104 3.596,-1.231 3.353,-1.384 3.083,-1.564 2.785,-1.77 2.461,-2.004 2.11,-2.264 1.73,-2.551 1.323,-2.865 0.89,-3.205 0.429,-3.573 -0.059,-3.966" />
    <path
       style="fill:none;stroke:#000000;stroke-width:2.64401817;stroke-linecap:round;stroke-linejoin:round;stroke-opacity:1"
       inkscape:connector-curvature="0"
       id="path173"
       d="m 531.672,466.437 -5.116,5.18 -6.919,4.198 -8.361,3.221 -9.44,2.251 -10.157,1.288 -10.513,0.331 -10.505,-0.619 -10.136,-1.562 -9.405,-2.5 -8.312,-3.431 -6.856,-4.355 -5.038,-5.272" />
    <path
       style="fill:none;stroke:#000000;stroke-width:2.64401817;stroke-linecap:round;stroke-linejoin:round;stroke-opacity:1"
       inkscape:connector-curvature="0"
       id="path175"
       d="m 486.42,472.335 0.851,0.002 2.094,-0.183" />
    <path
       style="fill:none;stroke:#000000;stroke-width:2.64401817;stroke-linecap:round;stroke-linejoin:round;stroke-opacity:1"
       inkscape:connector-curvature="0"
       id="path177"
       d="m 463.988,471.171 1.672,0.298 1.648,0.241 1.63,0.191 1.615,0.147 1.605,0.108 1.599,0.076 1.6,0.048 1.603,0.028 1.612,0.012 1.626,0.003 1.644,0 1.666,0.002" />
    <path
       inkscape:connector-curvature="0"
       style="fill:#2e3436;stroke:#000000;stroke-width:2.64401817;stroke-linecap:round;stroke-linejoin:round;stroke-opacity:1"
       id="path179"
       d="m 436.067,442.384 2.224,-1.202 2.259,-0.452 2.219,0.203 2.101,0.768 1.907,1.238 1.635,1.617 1.287,1.902 0.863,2.094 0.36,2.194 -0.218,2.201 -0.873,2.114 -1.605,1.936 -2.115,1.451 -2.135,0.631 -2.089,-0.09 -1.977,-0.71 -1.798,-1.228 -1.553,-1.646 -1.243,-1.964 -0.867,-2.18 -0.424,-2.297 0.084,-2.312 0.659,-2.227 1.299,-2.041" />
    <path
       style="fill:none;stroke:#000000;stroke-width:2.64401817;stroke-linecap:round;stroke-linejoin:round;stroke-opacity:1"
       inkscape:connector-curvature="0"
       id="path181"
       d="m 448.226,456.997 2.659,-2.541" />
    <path
       inkscape:connector-curvature="0"
       id="path5074"
       d="m 570.73405,423.75996 c -2.98311,2.83142 -5.86509,11.47738 -1.92132,16.43237 3.94376,4.95499 7.43248,-9.55606 6.01677,-12.64029 -1.41571,-3.08422 -0.35393,-3.18535 -4.09545,-3.79208 z"
       style="fill:#2e3436;fill-rule:evenodd;stroke:#000000;stroke-width:0.88133937px;stroke-linecap:butt;stroke-linejoin:miter;stroke-opacity:1" />
    <path
       style="fill:none;stroke:#000000;stroke-width:2.64401817;stroke-linecap:round;stroke-linejoin:round;stroke-opacity:1"
       inkscape:connector-curvature="0"
       id="path183"
       d="m 568.918,440.787 1.361,-0.323 1.212,-0.833 1.048,-1.253 0.87,-1.579 0.676,-1.814 0.469,-1.955 0.248,-2.004 0.011,-1.96 -0.238,-1.825 -0.503,-1.597 -0.781,-1.276 -1.075,-0.862" />
    <path
       style="fill:none;stroke:#000000;stroke-width:2.64401817;stroke-linecap:round;stroke-linejoin:round;stroke-opacity:1"
       inkscape:connector-curvature="0"
       id="path185"
       d="m 568.918,440.787 -1.115,-0.821 -0.809,-1.261 -0.521,-1.602 -0.247,-1.847 0.011,-1.992 0.252,-2.038 0.48,-1.988 0.69,-1.838 0.885,-1.591 1.065,-1.245 1.229,-0.8 1.378,-0.258" />
    <path
       style="fill:none;stroke:#000000;stroke-width:2.64401817;stroke-linecap:round;stroke-linejoin:round;stroke-opacity:1"
       inkscape:connector-curvature="0"
       id="path187"
       d="m 471.483,230.405 4.074,-1.81 3.14,-2.497 2.236,-3.016 1.365,-3.368 0.525,-3.553 -0.282,-3.571 -1.057,-3.421 -1.802,-3.106 -2.513,-2.622 -3.194,-1.972 -3.841,-1.154 -4.458,-0.17" />
    <path
       style="fill:none;stroke:#000000;stroke-width:2.64401817;stroke-linecap:round;stroke-linejoin:round;stroke-opacity:1"
       inkscape:connector-curvature="0"
       id="path189"
       d="m 471.483,230.405 -4.514,-0.099 -3.892,-1.117 -3.235,-1.961 -2.547,-2.631 -1.825,-3.13 -1.07,-3.455 -0.282,-3.607 0.538,-3.586 1.392,-3.392 2.279,-3.025 3.198,-2.485 4.15,-1.772" />
    <path
       inkscape:connector-curvature="0"
       id="path191"
       d="m 554.313,226.126 c 1.81646,-0.87832 3.7856,-1.52717 5.24044,-2.98697 1.49999,-1.0438 2.42738,-2.64212 3.45206,-4.1131 0.91203,-2.02023 1.60796,-4.1207 1.75664,-6.34925 0.11695,-3.0923 -0.50154,-6.25215 -2.11887,-8.91943 -1.30507,-2.36172 -3.44466,-4.12148 -5.80235,-5.37956 -1.7361,-0.51858 -3.44111,-1.27731 -5.29378,-1.14217 -0.75005,-0.0298 -1.50009,-0.0597 -2.25014,-0.0895"
       style="fill:none;stroke:#000000;stroke-width:2.64401817;stroke-linecap:round;stroke-linejoin:round;stroke-opacity:1" />
    <path
       style="fill:none;stroke:#000000;stroke-width:2.64401817;stroke-linecap:round;stroke-linejoin:round;stroke-opacity:1"
       inkscape:connector-curvature="0"
       id="path193"
       d="m 554.313,226.126 -4.195,-0.098 -3.58,-1.076 -2.944,-1.885 -2.286,-2.529 -1.607,-3.006 -0.905,-3.316 -0.183,-3.459 0.561,-3.436 1.328,-3.245 2.115,-2.889 2.925,-2.365 3.755,-1.676" />
    <path
       style="fill:none;stroke:#000000;stroke-width:2.64401817;stroke-linecap:round;stroke-linejoin:round;stroke-opacity:1"
       inkscape:connector-curvature="0"
       id="path195"
       d="m 501.499,106.578 0.926,-0.612 0.909,-0.644 0.883,-0.68 0.853,-0.719 0.813,-0.758 0.768,-0.801 0.715,-0.846 0.655,-0.892 0.588,-0.941 0.515,-0.993 0.435,-1.047 0.346,-1.102 0.365,-1.384 0.329,-1.304 0.284,-1.238 0.23,-1.189 0.167,-1.157 0.097,-1.141 0.015,-1.141 -0.073,-1.157 -0.172,-1.189 -0.278,-1.239 -0.395,-1.303 -0.518,-1.384 -3.867,-6.653 -4.764,-4.02 -5.303,-1.699 -5.483,0.308 -5.303,2 -4.764,3.378 -3.866,4.444 -2.608,5.195 -0.993,5.632 0.984,5.755 3.318,5.565 6.012,5.061" />
    <path
       inkscape:connector-curvature="0"
       id="path197"
       d="m 469.501,247.677 c 6.64026,-1.67022 13.66327,-2.3895 19.48356,-6.28522 6.54992,-3.18427 12.03559,-8.59173 15.73663,-14.80279 6.44475,-9.86865 8.38328,-22.34471 6.40441,-33.87381 -1.414,-9.24812 -5.68568,-18.18076 -12.18564,-24.91187 -5.63702,-5.6675 -12.90096,-10.0527 -20.83642,-11.35097 -8.7104,-2.14075 -17.95323,-1.64591 -26.24529,1.88957 -7.54503,2.88431 -14.39007,7.22381 -21.43625,11.10609"
       style="fill:none;stroke:#000000;stroke-width:2.64401817;stroke-linecap:round;stroke-linejoin:round;stroke-opacity:1" />
    <path
       style="fill:none;stroke:#000000;stroke-width:2.64401817;stroke-linecap:round;stroke-linejoin:round;stroke-opacity:1"
       inkscape:connector-curvature="0"
       id="path199"
       d="m 469.501,247.677 -10.979,-2.089 -9.589,-3.826 -8.134,-5.317 -6.61,-6.565 -5.018,-7.567 -3.36,-8.325 -1.634,-8.839 0.159,-9.108 2.021,-9.131 3.948,-8.912 5.944,-8.446 8.008,-7.737" />
    <path
       style="fill:none;stroke:#000000;stroke-width:2.64401817;stroke-linecap:round;stroke-linejoin:round;stroke-opacity:1"
       inkscape:connector-curvature="0"
       id="path201"
       d="m 418.708,181.039 -1.05,2.048 -0.949,1.98 -0.851,1.93 -0.76,1.897 -0.675,1.884 -0.595,1.888 -0.52,1.909 -0.452,1.95 -0.388,2.008 -0.331,2.084 -0.28,2.178 -0.233,2.29" />
    <path
       inkscape:connector-curvature="0"
       id="path203"
       d="m 574.649,251.279 c 6.67708,-1.96004 13.9593,-2.45533 19.82845,-6.49398 4.98689,-2.30567 9.20741,-5.68523 12.88423,-9.73107 4.55365,-4.05921 7.17319,-9.674 10.17777,-14.87408 2.03745,-5.91192 4.47844,-11.83805 4.71383,-18.17529 1.21641,-6.95769 0.19526,-14.00484 -0.81506,-20.91751 -1.90374,-5.51419 -3.07727,-11.38612 -6.58191,-16.18427 -2.21616,-4.52172 -5.59454,-8.17955 -9.31263,-11.50303 -3.8368,-4.3157 -9.38475,-6.27724 -14.35514,-8.94968 -5.51459,-1.74074 -11.3806,-2.73966 -17.14417,-3.43716 -7.54613,-0.14085 -14.85552,2.18835 -21.86537,4.74007"
       style="fill:none;stroke:#000000;stroke-width:2.64401817;stroke-linecap:round;stroke-linejoin:round;stroke-opacity:1" />
    <path
       style="fill:none;stroke:#000000;stroke-width:2.64401817;stroke-linecap:round;stroke-linejoin:round;stroke-opacity:1"
       inkscape:connector-curvature="0"
       id="path205"
       d="m 574.649,251.279 -13.602,-2.854 -11.531,-5.307 -9.424,-7.357 -7.276,-9.001 -5.091,-10.239 -2.868,-11.074 -0.605,-11.501 1.696,-11.525 4.034,-11.144 6.412,-10.356 8.828,-9.164 11.282,-7.568" />
    <path
       style="fill:none;stroke:#000000;stroke-width:2.64401817;stroke-linecap:round;stroke-linejoin:round;stroke-opacity:1"
       inkscape:connector-curvature="0"
       id="path207"
       d="m 372.192,331.176 -0.51,7.121 -0.693,7.13 -0.814,7.135 -0.874,7.139 -0.874,7.138 -0.813,7.136 -0.69,7.13 -0.507,7.121 -0.263,7.11 0.042,7.095 0.408,7.078 0.835,7.057 1.232,5.27 1.984,4.922 2.646,4.584 3.222,4.257 3.707,3.94 4.105,3.634 4.414,3.339 4.634,3.054 4.766,2.779 4.809,2.516 4.764,2.262 4.631,2.019 8.911,3.416 9.109,2.877 9.274,2.352 9.407,1.841 9.507,1.346 9.575,0.866 9.611,0.399 9.615,-0.051 9.585,-0.488 9.524,-0.909 9.43,-1.316 9.304,-1.708 5.241,-1.17 5.637,-1.471 5.88,-1.793 5.973,-2.136 5.915,-2.502 5.705,-2.889 5.345,-3.298 4.833,-3.728 4.17,-4.18 3.355,-4.654 2.39,-5.149 1.274,-5.666 0.727,-6.894 0.643,-6.902 0.57,-6.909 0.508,-6.914 0.458,-6.919 0.42,-6.923 0.392,-6.924 0.375,-6.926 0.37,-6.927 0.377,-6.926 0.393,-6.924 0.423,-6.921 0.082,-1.949 -0.018,-1.814 -0.122,-1.694 -0.235,-1.592 -0.355,-1.506 -0.481,-1.436 -0.614,-1.384 -0.754,-1.346 -0.901,-1.327 -1.055,-1.323 -1.215,-1.336 -1.383,-1.366" />
    <path
       style="fill:none;stroke:#000000;stroke-width:2.64401817;stroke-linecap:round;stroke-linejoin:round;stroke-opacity:1"
       inkscape:connector-curvature="0"
       id="path209"
       d="m 586.579,346.122 -4.007,6.204 -4.557,5.988 -5.059,5.721 -5.51,5.402 -5.914,5.032 -6.27,4.611 -6.576,4.137 -6.834,3.613 -7.044,3.037 -7.204,2.41 -7.316,1.731 -7.38,1.001 -6.459,0.252 -6.392,-0.292 -6.327,-0.779 -6.261,-1.209 -6.196,-1.581 -6.13,-1.897 -6.066,-2.155 -6.001,-2.356 -5.936,-2.499 -5.873,-2.587 -5.808,-2.615 -5.745,-2.588 -1.824,-0.822 -1.822,-0.831 -1.818,-0.836 -1.816,-0.841 -1.816,-0.844 -1.815,-0.843 -1.816,-0.841 -1.818,-0.837 -1.821,-0.831 -1.824,-0.823 -1.829,-0.813 -1.835,-0.8 -3.264,-1.316 -4.064,-1.544 -4.655,-1.784 -5.033,-2.037 -5.201,-2.302 -5.159,-2.579 -4.906,-2.869 -4.443,-3.172 -3.768,-3.486 -2.883,-3.814 -1.787,-4.153 -0.481,-4.506" />
    <path
       style="fill:none;stroke:#000000;stroke-width:2.64401817;stroke-linecap:round;stroke-linejoin:round;stroke-opacity:1"
       inkscape:connector-curvature="0"
       id="path211"
       d="m 552.179,145.753 -11.475,-1.534 -11.53,-1.266 -11.575,-0.994 -11.607,-0.718 -11.631,-0.438 -11.641,-0.153 -11.641,0.136 -11.629,0.428 -11.608,0.725 -11.574,1.026 -11.529,1.332 -11.473,1.641 -1.989,0.329 -3.136,0.562 -4.035,0.782 -4.687,0.989 -5.09,1.185 -5.245,1.366 -5.152,1.537 -4.811,1.694 -4.221,1.838 -3.383,1.972 -2.298,2.091 -0.964,2.199 -1.272,13.556 -1.23,13.56 -1.187,13.565 -1.14,13.569 -1.092,13.573 -1.043,13.577 -0.99,13.581 -0.937,13.584 -0.881,13.588 -0.823,13.591 -0.763,13.595 -0.702,13.597 0.492,0.997 1.452,0.964 2.231,0.921 2.826,0.868 3.24,0.807 3.469,0.736 3.516,0.656 3.381,0.565 3.063,0.467 2.562,0.358 1.879,0.241 1.012,0.113 6.39,0.548 6.387,0.494 6.387,0.442 6.385,0.39 6.386,0.338 6.388,0.288 6.39,0.237 6.393,0.187 6.397,0.138 6.402,0.09 6.409,0.041 6.415,-0.006 8.981,-0.046 9.033,-0.071 9.074,-0.116 9.101,-0.181 9.118,-0.267 9.12,-0.372 9.113,-0.499 9.091,-0.645 9.058,-0.812 9.013,-0.999 8.954,-1.207 8.885,-1.434 1.752,-0.304 2.44,-0.426 2.967,-0.535 3.333,-0.631 3.537,-0.714 3.582,-0.785 3.465,-0.842 3.187,-0.887 2.748,-0.918 2.149,-0.936 1.389,-0.942 0.467,-0.934 -0.375,-6.168 -0.488,-6.159 -0.585,-6.15 -0.665,-6.144 -0.729,-6.138 -0.778,-6.135 -0.81,-6.132 -0.826,-6.13 -0.826,-6.131 -0.81,-6.132 -0.777,-6.134 -0.73,-6.139" />
    <path
       style="fill:none;stroke:#000000;stroke-width:2.64401817;stroke-linecap:round;stroke-linejoin:round;stroke-opacity:1"
       inkscape:connector-curvature="0"
       id="path213"
       d="m 223.056,284.248 3.323,-0.585 2.345,-0.425 1.689,-0.333 1.358,-0.31 1.347,-0.354 1.662,-0.467 2.298,-0.648 3.257,-0.896 4.54,-1.213 6.146,-1.597 8.074,-2.05 10.326,-2.572 1.844,-0.381 2.593,-0.454 3.204,-0.545 3.676,-0.655 4.01,-0.785 4.206,-0.933 4.265,-1.099 4.184,-1.286 3.967,-1.491 3.61,-1.715 3.117,-1.958 2.485,-2.221 0.581,-0.677 0.548,-0.708 0.516,-0.735 0.479,-0.761 0.443,-0.783 0.403,-0.805 0.362,-0.824 0.32,-0.841 0.276,-0.855 0.229,-0.867 0.182,-0.878 0.132,-0.885 1.304,-10.888 1.303,-10.889 1.3,-10.888 1.299,-10.889 1.296,-10.889 1.295,-10.89 1.292,-10.889 1.291,-10.89 1.288,-10.89 1.286,-10.89 1.284,-10.891 1.282,-10.891 0.137,-4.633 -0.685,-4.069 -1.415,-3.553 -2.051,-3.084 -2.593,-2.663 -3.042,-2.29 -3.397,-1.966 -3.66,-1.69 -3.828,-1.46 -3.904,-1.28 -3.885,-1.148 -3.774,-1.062" />
    <path
       style="fill:none;stroke:#000000;stroke-width:2.64401817;stroke-linecap:round;stroke-linejoin:round;stroke-opacity:1"
       inkscape:connector-curvature="0"
       id="path215"
       d="m 274.896,83.458 -6.192,-1.688 -6.134,-1.571 -6.09,-1.466 -6.062,-1.37 -6.048,-1.285 -6.05,-1.212 -6.067,-1.149 -6.098,-1.097 -6.145,-1.054 -6.206,-1.024 -6.282,-1.004 -6.374,-0.994" />
    <path
       style="fill:none;stroke:#000000;stroke-width:2.64401817;stroke-linecap:round;stroke-linejoin:round;stroke-opacity:1"
       inkscape:connector-curvature="0"
       id="path217"
       d="m 752.803,82.889 -2.858,3.286 -3.841,2.522 -4.645,1.831 -5.27,1.21 -5.718,0.661 -5.987,0.181 -6.078,-0.226 -5.989,-0.562 -5.723,-0.828 -5.278,-1.022 -4.655,-1.146 -3.853,-1.198 -1.68,-0.609 -1.763,-0.684 -1.804,-0.768 -1.806,-0.86 -1.766,-0.96 -1.686,-1.069 -1.563,-1.187 -1.401,-1.312 -1.198,-1.447 -0.953,-1.59 -0.668,-1.742 -0.342,-1.901" />
    <path
       style="fill:none;stroke:#000000;stroke-width:2.64401817;stroke-linecap:round;stroke-linejoin:round;stroke-opacity:1"
       inkscape:connector-curvature="0"
       id="path219"
       d="m 770.907,81.872 -0.294,-2.716 -0.764,-2.491 -1.179,-2.279 -1.536,-2.078 -1.836,-1.89 -2.081,-1.714 -2.269,-1.549 -2.399,-1.395 -2.474,-1.255 -2.491,-1.125 -2.452,-1.008 -2.356,-0.903 -5.114,-1.767 -5.252,-1.541 -5.364,-1.312 -5.456,-1.078 -5.522,-0.84 -5.565,-0.596 -5.586,-0.349 -5.582,-0.097 -5.555,0.159 -5.504,0.42 -5.431,0.686 -5.333,0.955 -2.359,0.522 -2.494,0.639 -2.563,0.771 -2.568,0.923 -2.509,1.089 -2.386,1.273 -2.199,1.475 -1.946,1.692 -1.631,1.927 -1.25,2.179 -0.804,2.448 -0.296,2.734 0.303,2.588 0.889,2.399 1.392,2.216 1.811,2.036 2.146,1.861 2.397,1.691 2.564,1.525 2.648,1.364 2.648,1.208 2.564,1.056 2.397,0.91 2.144,0.766 5.67,1.734 7.004,1.682 8.021,1.499 8.724,1.185 9.108,0.74 9.177,0.161 8.93,-0.547 8.366,-1.389 7.485,-2.361 6.289,-3.465 4.776,-4.7 2.947,-6.068" />
    <path
       style="fill:none;stroke:#000000;stroke-width:2.64401817;stroke-linecap:round;stroke-linejoin:round;stroke-opacity:1"
       inkscape:connector-curvature="0"
       id="path221"
       d="m 660.941,71.177 3.818,-5.054 5.399,-3.861 6.694,-2.784 7.702,-1.819 8.423,-0.971 8.857,-0.237 9.006,0.383 8.867,0.889 8.441,1.279 7.729,1.555 6.731,1.717 5.445,1.764 2.343,0.893 2.444,0.999 2.488,1.115 2.473,1.243 2.402,1.384 2.274,1.536 2.088,1.701 1.845,1.877 1.546,2.065 1.188,2.264 0.774,2.477 0.303,2.7" />
    <path
       style="fill:none;stroke:#000000;stroke-width:2.64401817;stroke-linecap:round;stroke-linejoin:round;stroke-opacity:1"
       inkscape:connector-curvature="0"
       id="path223"
       d="m 676.085,73.79 2.871,-3.412 3.888,-2.61 4.719,-1.885 5.366,-1.233 5.828,-0.659 6.106,-0.158 6.198,0.266 6.105,0.615 5.828,0.888 5.366,1.086 4.719,1.209 3.887,1.256 1.708,0.647 1.836,0.752 1.904,0.862 1.909,0.976 1.852,1.097 1.733,1.222 1.552,1.352 1.308,1.486 1.003,1.628 0.636,1.772 0.205,1.923 -0.286,2.079" />
    <path
       style="fill:none;stroke:#000000;stroke-width:2.64401817;stroke-linecap:round;stroke-linejoin:round;stroke-opacity:1"
       inkscape:connector-curvature="0"
       id="path225"
       d="m 676.085,73.79 -0.252,2.131 0.261,1.966 0.707,1.808 1.086,1.656 1.401,1.508 1.648,1.366 1.829,1.23 1.945,1.1 1.992,0.974 1.975,0.855 1.892,0.74 1.74,0.633 4.059,1.301 4.755,1.268 5.293,1.152 5.675,0.952 5.899,0.671 5.966,0.306 5.874,-0.141 5.626,-0.671 5.22,-1.285 4.657,-1.981 3.936,-2.759 3.057,-3.621" />
    <path
       style="fill:none;stroke:#000000;stroke-width:2.64401817;stroke-linecap:round;stroke-linejoin:round;stroke-opacity:1"
       inkscape:connector-curvature="0"
       id="path227"
       d="m 638.5,148.97 -2.157,-0.559 -2.519,-0.663 -2.742,-0.67 -2.83,-0.581 -2.781,-0.397 -2.596,-0.117 -2.275,0.259 -1.817,0.732 -1.223,1.3 -0.493,1.963 0.373,2.724 1.377,3.578 0.391,0.804 0.404,0.797 0.417,0.791 0.429,0.784 0.439,0.779 0.45,0.774 0.46,0.767 0.469,0.762 0.477,0.758 0.485,0.752 0.491,0.747 0.498,0.742 0.274,0.411 0.491,0.736 0.678,1.008 0.836,1.226 0.966,1.392 1.066,1.505 1.138,1.565 1.179,1.572 1.193,1.525 1.177,1.427 1.131,1.274 1.058,1.069" />
    <path
       style="fill:none;stroke:#000000;stroke-width:2.64401817;stroke-linecap:round;stroke-linejoin:round;stroke-opacity:1"
       inkscape:connector-curvature="0"
       id="path229"
       d="m 653.533,117.263 -1.352,-3.101 -1.525,-3.14 -1.698,-3.138 -1.874,-3.09 -2.051,-2.999 -2.227,-2.863 -2.406,-2.684 -2.586,-2.461 -2.766,-2.194 -2.948,-1.882 -3.13,-1.528 -3.314,-1.128 -5.13,-0.788 -3.919,0.593 -2.83,1.763 -1.861,2.722 -1.01,3.471 -0.281,4.007 0.328,4.334 0.818,4.449 1.187,4.353 1.437,4.046 1.566,3.527 1.576,2.799 1.523,2.24 1.587,2.16 1.646,2.09 1.7,2.03 1.746,1.979 1.788,1.939 1.822,1.908 1.852,1.887 1.875,1.877 1.892,1.876 1.904,1.885 1.909,1.904" />
    <path
       style="fill:none;stroke:#000000;stroke-width:2.64401817;stroke-linecap:round;stroke-linejoin:round;stroke-opacity:1"
       inkscape:connector-curvature="0"
       id="path231"
       d="m 620.903,145.82 1.52,0.078 1.499,0.133 1.481,0.181 1.466,0.226 1.456,0.263 1.447,0.295 1.444,0.322 1.442,0.342 1.445,0.357 1.451,0.367 1.459,0.369 1.473,0.368" />
    <path
       style="fill:none;stroke:#000000;stroke-width:2.64401817;stroke-linecap:round;stroke-linejoin:round;stroke-opacity:1"
       inkscape:connector-curvature="0"
       id="path233"
       d="m 768.135,172.471 1.557,-1.777 1.729,-1.582 1.876,-1.416 1.997,-1.28 2.092,-1.173 2.163,-1.095 2.207,-1.047 2.226,-1.028 2.219,-1.038 2.188,-1.078 2.13,-1.147 2.046,-1.246 3.577,-2.368 3.691,-2.532 3.746,-2.694 3.744,-2.857 3.684,-3.019 3.565,-3.18 3.387,-3.341 3.153,-3.501 2.86,-3.661 2.508,-3.82 2.098,-3.979 1.631,-4.138 0.861,-3.972 -0.167,-3.241 -1.055,-2.565 -1.8,-1.946 -2.402,-1.381 -2.863,-0.873 -3.182,-0.42 -3.358,-0.023 -3.392,0.318 -3.286,0.604 -3.035,0.834 -2.643,1.009 -4.24,2.056 -4.066,2.269 -3.904,2.465 -3.757,2.643 -3.624,2.806 -3.503,2.952 -3.397,3.08 -3.304,3.194 -3.226,3.289 -3.16,3.368 -3.108,3.43 -3.07,3.477" />
    <path
       style="fill:none;stroke:#000000;stroke-width:2.64401817;stroke-linecap:round;stroke-linejoin:round;stroke-opacity:1"
       inkscape:connector-curvature="0"
       id="path235"
       d="m 742.885,209.077 3.465,0.695 3.219,0.223 3.01,-0.208 2.842,-0.599 2.712,-0.948 2.622,-1.257 2.57,-1.525 2.557,-1.751 2.584,-1.938 2.65,-2.084 2.754,-2.187 2.898,-2.252 0.887,-0.649 1.366,-0.99 1.729,-1.283 1.977,-1.527 2.11,-1.725 2.127,-1.875 2.03,-1.976 1.816,-2.03 1.489,-2.036 1.044,-1.994 0.485,-1.905 -0.19,-1.768 -1.034,-1.773 -1.647,-1.25 -2.151,-0.803 -2.547,-0.43 -2.835,-0.133 -3.015,0.089 -3.087,0.234 -3.051,0.306 -2.905,0.3 -2.654,0.221 -2.292,0.066 -1.824,-0.165" />
    <path
       style="fill:none;stroke:#000000;stroke-width:2.64401817;stroke-linecap:round;stroke-linejoin:round;stroke-opacity:1"
       inkscape:connector-curvature="0"
       id="path237"
       d="m 825.807,105.631 1.1,2.739 0.579,2.706 0.108,2.665 -0.314,2.621 -0.686,2.571 -1.009,2.516 -1.281,2.456 -1.506,2.39 -1.679,2.319 -1.804,2.243 -1.879,2.161 -1.904,2.075 -1.922,1.999 -1.983,1.961 -2.04,1.923 -2.09,1.883 -2.135,1.843 -2.175,1.801 -2.209,1.76 -2.238,1.716 -2.26,1.672 -2.277,1.627 -2.29,1.581 -2.295,1.535 -1.171,0.698 -1.623,0.875 -1.988,1.033 -2.269,1.171 -2.464,1.289 -2.573,1.387 -2.596,1.467 -2.534,1.527 -2.387,1.566 -2.153,1.587 -1.834,1.587 -1.43,1.569" />
    <path
       style="fill:none;stroke:#000000;stroke-width:2.64401817;stroke-linecap:round;stroke-linejoin:round;stroke-opacity:1"
       inkscape:connector-curvature="0"
       id="path239"
       d="m 787.904,172.283 2.78,2.14" />
    <path
       style="fill:none;stroke:#000000;stroke-width:2.64401817;stroke-linecap:round;stroke-linejoin:round;stroke-opacity:1"
       inkscape:connector-curvature="0"
       id="path241"
       d="m 742.885,209.077 3.932,0.391 3.951,-0.399 3.94,-1.082 3.899,-1.661 3.827,-2.13 3.725,-2.495 3.592,-2.751 3.43,-2.903 3.237,-2.946 3.013,-2.883 2.76,-2.714 2.476,-2.437 0.969,-1.076 0.834,-1.163 0.727,-1.208 0.649,-1.212 0.6,-1.175 0.578,-1.097 0.585,-0.978 0.621,-0.819 0.684,-0.617 0.778,-0.375 0.898,-0.092 1.048,0.232" />
    <path
       style="fill:none;stroke:#000000;stroke-width:2.64401817;stroke-linecap:round;stroke-linejoin:round;stroke-opacity:1"
       inkscape:connector-curvature="0"
       id="path243"
       d="m 774.815,127.34 0.143,-2.147 -0.173,-2.044 -0.467,-1.927 -0.737,-1.798 -0.985,-1.654 -1.208,-1.497 -1.409,-1.327 -1.588,-1.143 -1.742,-0.946 -1.874,-0.734 -1.983,-0.511 -2.069,-0.272 -17.628,-1.413 -14.015,-1.387 -11.012,-1.264 -8.619,-1.047 -6.833,-0.732 -5.66,-0.321 -5.094,0.186 -5.139,0.788 -5.792,1.489 -7.057,2.284 -8.929,3.176 -11.412,4.164 -1.551,0.615 -1.499,0.7 -1.439,0.787 -1.369,0.876 -1.289,0.967 -1.199,1.061 -1.101,1.155 -0.992,1.252 -0.874,1.352 -0.746,1.453 -0.608,1.556 -0.462,1.662 -0.688,3.507 -0.621,3.984 -0.557,4.354 -0.501,4.615 -0.449,4.767 -0.403,4.813 -0.363,4.75 -0.328,4.578 -0.3,4.299 -0.276,3.912 -0.258,3.416 -0.246,2.812 -0.718,5.276 -1.052,5.404 -1.259,5.49 -1.341,5.535 -1.297,5.538 -1.127,5.5 -0.83,5.42 -0.407,5.298 0.141,5.137 0.815,4.932 1.616,4.687 2.542,4.399 0.521,0.685 0.555,0.654 0.59,0.621 0.621,0.586 0.653,0.55 0.682,0.512 0.711,0.471 0.738,0.429 0.763,0.384 0.787,0.338 0.811,0.29 0.831,0.24 5.685,1.445 5.686,1.442 5.686,1.44 5.686,1.439 5.687,1.437 5.687,1.435 5.688,1.435 5.687,1.434 5.688,1.433 5.688,1.434 5.687,1.433 5.688,1.434 1.604,0.333 1.617,0.193 1.618,0.055 1.61,-0.082 1.593,-0.216 1.566,-0.351 1.529,-0.483 1.483,-0.614 1.426,-0.743 1.361,-0.872 1.285,-0.999 1.2,-1.125 0.915,-0.848 1.546,-1.352 2.055,-1.792 2.442,-2.168 2.706,-2.481 2.849,-2.731 2.87,-2.917 2.769,-3.038 2.545,-3.098 2.199,-3.093 1.732,-3.024 1.143,-2.892" />
    <path
       style="fill:none;stroke:#000000;stroke-width:2.64401817;stroke-linecap:round;stroke-linejoin:round;stroke-opacity:1"
       inkscape:connector-curvature="0"
       id="path245"
       d="m 752.639,231.877 0.202,-0.683 4.819,-22.7" />
    <path
       style="fill:none;stroke:#000000;stroke-width:2.64401817;stroke-linecap:round;stroke-linejoin:round;stroke-opacity:1"
       inkscape:connector-curvature="0"
       id="path247"
       d="m 204.466,341.732 -18.5,2.343" />
    <path
       style="fill:none;stroke:#000000;stroke-width:2.64401817;stroke-linecap:round;stroke-linejoin:round;stroke-opacity:1"
       inkscape:connector-curvature="0"
       id="path249"
       d="m 321.228,537.487 -0.323,8.419" />
    <path
       style="fill:none;stroke:#000000;stroke-width:2.64401817;stroke-linecap:round;stroke-linejoin:round;stroke-opacity:1"
       inkscape:connector-curvature="0"
       id="path251"
       d="m 483.319,106.683 -6.001,34.306" />
    <path
       style="fill:none;stroke:#000000;stroke-width:2.64401817;stroke-linecap:round;stroke-linejoin:round;stroke-opacity:1"
       inkscape:connector-curvature="0"
       id="path253"
       d="m 507.504,141.317 -6.005,-34.739" />
    <path
       style="fill:none;stroke:#000000;stroke-width:2.64401817;stroke-linecap:round;stroke-linejoin:round;stroke-opacity:1"
       inkscape:connector-curvature="0"
       id="path255"
       d="m 678.627,308.678 3.48,-3.1" />
    <path
       sodipodi:nodetypes="ccccccccccccccccccccccc"
       style="fill:none;fill-opacity:1;stroke:#000000;stroke-width:2.64401817;stroke-linecap:round;stroke-linejoin:round;stroke-opacity:1"
       inkscape:connector-curvature="0"
       d="m 404.48197,334.595 6.385,0.39 6.386,0.338 6.388,0.288 6.39,0.237 6.393,0.187 6.397,0.138 6.402,0.09 6.409,0.041 6.415,-0.006 8.981,-0.046 9.033,-0.071 9.074,-0.116 9.101,-0.181 9.118,-0.267 9.12,-0.372 9.113,-0.499 9.091,-0.645 9.058,-0.812 29.08921,-3.11959 c 0,0 1.09274,6.95711 -1.73868,17.67607 -52.47148,52.09923 -180.61398,17.02632 -189.95728,-15.05419 12.19056,1.43569 10.87233,0.8079 23.35275,1.80371 z"
       id="path5071" />
  </g>
  <g
     inkscape:groupmode="layer"
     id="layer1"
     inkscape:label="text"
     transform="translate(-327.00761,369.36528)">
    <g
       inkscape:export-ydpi="49.977276"
       inkscape:export-xdpi="49.977276"
       style="display:inline;fill:#fcaf3e"
       transform="matrix(4.1419685,0,0,4.1419685,-413.67125,-827.73404)"
       id="g5491">
      <g
         transform="matrix(0.81815283,0,0,0.81815283,16.823807,83.251978)"
         id="g5493">
        <g
           transform="translate(-51.564319,3.7058594e-4)"
           id="g5499" />
      </g>
    </g>
    <g
       transform="translate(35.466102,-123.55932)"
       id="g4289" />
    <g
       inkscape:export-ydpi="49.977276"
       inkscape:export-xdpi="49.977276"
       style="display:inline;fill:#fcaf3e"
       transform="matrix(4.1419685,0,0,4.1419685,-413.67125,-827.73404)"
       id="g4303">
      <g
         transform="matrix(0.81815283,0,0,0.81815283,16.823807,83.251978)"
         id="g4305">
        <g
           transform="translate(-51.564319,3.7058594e-4)"
           id="g4311" />
      </g>
    </g>
    <g
       id="g4358">
      <g
         id="g4867"
         style="display:inline"
         transform="matrix(1.8793247,0,0,1.8793247,-173.52929,-446.00897)">
        <g
           transform="translate(-1.0198591,-19.927726)"
           id="g4947"
           style="display:inline;fill:#ad7fa8;stroke:#ad7fa8;stroke-width:0;stroke-miterlimit:4;stroke-dasharray:none" />
        <path
           sodipodi:nodetypes="csssssc"
           inkscape:connector-curvature="0"
           id="rect4399"
           d="m 727.6211,97.132187 c 0,-25.631463 -20.6348,-46.26621 -46.2663,-46.26621 l -358.66649,0 c -25.6314,0 -46.2662,20.634747 -46.2662,46.26621 l 0,456.573993 c 0,25.63145 20.6348,46.2662 46.2662,46.2662 l 406.30296,0"
           style="color:#000000;clip-rule:nonzero;display:inline;overflow:visible;visibility:visible;opacity:1;isolation:auto;mix-blend-mode:normal;color-interpolation:sRGB;color-interpolation-filters:linearRGB;solid-color:#000000;solid-opacity:1;fill:none;fill-opacity:1;fill-rule:nonzero;stroke:#fcaf3e;stroke-width:20.16681862;stroke-linecap:round;stroke-linejoin:round;stroke-miterlimit:4;stroke-dasharray:none;stroke-dashoffset:0;stroke-opacity:1;color-rendering:auto;image-rendering:auto;shape-rendering:auto;text-rendering:auto;enable-background:accumulate" />
        <path
           id="path4509"
           style="display:inline;fill:#cccccc;fill-opacity:1;stroke:none"
           d="m 607.2898,393.46175 -0.092,1.32151 1.48153,4.49733 -6.91435,0.0617 -0.76134,0.23461 -12.57126,15.40238 -0.0358,1.16416 0.96687,6.02164 -7.52021,-0.99466 -0.5716,0.0126 -14.75764,13.64437 0.0972,8.70443 -10.78414,-2.91889 -16.60345,11.78789 -1.67606,13.71416 0.0278,0.76225 0.47445,1.44942 0.9111,2.0946 1.32357,2.67188 1.68962,3.15269 1.99397,3.51414 2.21894,3.73361 2.35344,3.79845 2.38988,3.7017 2.3227,3.44692 2.15773,3.04273 1.89938,2.51164 1.56304,1.87655 1.16549,1.17198 0.72604,0.4287 12.87245,3.53966 16.53178,-13.6301 0.0932,-0.35878 0.9129,-13.14577 0.70522,0.58931 1.38956,0.91104 0.8699,0.24403 13.01772,1.81151 14.49113,-15.32381 0.19913,-0.47473 -0.65814,-10.92848 0.66683,0.008 12.94412,0.004 12.15081,-16.91274 0.33986,-0.64062 -1.95294,-9.64614 11.68686,-1.64093 1.61394,-0.3684 0.57645,-1.05728 z m 111.89183,-163.92693 -6.78611,-24.38286 -6.5821,0.16744 -0.38244,-3.47468 -20.11499,-0.64845 -5.63906,5.43522 2.544,16.29643 -3.94985,12.35444 -1.13419,15.23954 -0.50809,-0.0267 -6.02884,-0.15425 -5.75089,0.0204 -5.19336,0.19016 -2.68558,-11.74975 -3.87619,-13.22317 9.66159,-17.57954 -4.47308,-1.47021 -19.58416,-4.44171 -9.73862,21.11835 -3.26905,12.42112 4.90919,23.35199 -0.0534,0.0219 -1.29398,1.43131 -0.95918,17.06969 0.50514,1.88232 2.41936,1.98137 14.46725,6.97493 -0.59778,0.39312 -0.63827,0.85536 -2.14355,19.54245 0.46238,1.24139 3.20777,3.48297 -6.27073,2.91376 -0.59631,0.52828 -5.08183,19.22095 0.44846,1.07491 3.3691,5.08371 -7.25901,2.20226 -0.51527,0.24779 -7.79927,18.52372 3.68584,7.88612 -11.02638,1.799 -10.24735,17.59603 4.14165,13.18084 0.34045,0.68255 1.03107,1.12376 1.69532,1.5308 2.30949,1.886 2.84155,2.17255 3.26804,2.37589 3.56361,2.48278 3.71288,2.48624 3.7061,2.38307 3.53961,2.17882 3.22236,1.87895 2.76761,1.50211 2.19885,1.06283 1.54566,0.5855 0.83831,0.0903 13.18455,-2.09679 9.42074,-19.24394 -0.0636,-0.36518 -4.60168,-12.34786 0.88572,0.24519 1.64186,0.25531 0.89299,-0.13731 12.60262,-3.73048 6.86252,-19.94287 -0.0149,-0.51459 -5.1159,-9.67948 0.61093,-0.26747 11.78855,-5.34604 4.07475,-20.42253 0.0447,-0.7238 -5.76495,-7.97667 9.9639,-6.32425 1.3174,-1.00249 0.0879,-1.20098 1.08583,-20.32172 -2.52162,-2.57566 2.67364,-0.32537 4.10102,-0.90419 15.66758,-5.1014 3.98632,-1.61686 1.84516,-1.8399 -0.82139,-18.41818 -0.26297,-1.6329 -2.23707,-1.66747 -5.48269,-2.5562 2.625,-16.587 -4.70068,-14.63108 z"
           inkscape:connector-curvature="0" />
        <g
           transform="matrix(1.0440128,0,0,1.0440128,-74.661551,27.356522)"
           id="g4340">
          <path
             sodipodi:nodetypes="cccccccccccccccccccccccccc"
             d="M 508.25682,148.09238 501.499,106.578 l 3.539,-2.259 3.857,-5.878 1.01,-1.898 1.473,-7.452 -1.422,-7.374 -4.105,-6.16 -1.317,-1.636 -5.577,-3.262 -1.751,-0.733 -2.498,-0.447 -2.854,-0.088 -2.76,0.286 -2.23,0.613 -4.815,2.957 -2.471,1.53 -3.98,5.957 -0.561,2.124 -1.422,7.409 1.43,7.308 4.065,6.109 1.538,1.319 2.671,1.68 -7.88305,38.82292 z"
             fill_rule="evenodd"
             id="path30"
             inkscape:connector-curvature="0"
             style="fill:#f15363;fill-opacity:1;stroke:none" />
          <path
             d="m 428.881,464.507 -0.555,7.367 0.948,4.797 0.811,1.231 -0.711,3.163 -0.917,12.141 0.948,5.225 3.098,5.13 5.238,4.803 7.252,4.235 9.011,3.434 10.385,2.432 11.265,1.28 11.576,0.044 11.291,-1.192 10.434,-2.354 9.079,-3.369 7.333,-4.185 5.325,-4.77 3.184,-5.115 1.031,-5.225 -0.914,-12.166 -0.698,-3.339 0.721,-1.061 1.031,-4.797 -0.5,-6.669 z"
             fill_rule="evenodd"
             id="path6"
             style="fill:#cccccc;fill-opacity:1;stroke:none"
             inkscape:connector-curvature="0" />
          <path
             d="m 477.318,140.989 -16.604,0.368 -25.042,1.77 -22.406,2.811 -18.504,3.615 -13.809,4.142 -8.804,4.392 -3.894,4.395 -12.06,162.936 3.896,2.771 9.631,2.622 2.47,0.365 -4.177,74.534 -0.576,10.856 3.943,11.342 8.821,11.312 13.767,10.646 18.383,9.276 16.528,5.365 105.666,1.04 17.248,-6.421 14.562,-8.974 9.703,-10.21 4.863,-10.811 5.656,-83.009 0.114,-7.611 -3.922,-7.403 -3.243,-3.059 7.294,-1.305 10.277,-3.008 4.505,-2.941 -8.399,-73.692 z m 101.53602,7.15042 C 535.66546,142.99112 460.714,141.357 460.714,141.357 l -25.042,1.77 -22.406,2.811 -18.504,3.615 -13.809,4.142 -8.804,4.392 -3.894,4.395 -12.06,162.936 3.896,2.771 9.631,2.622 2.47,0.365 -4.177,74.534 -0.576,10.856 3.943,11.342 8.821,11.312 13.767,10.646 18.383,9.276 16.528,5.365 c 45.90572,10.86864 74.91918,6.76034 105.666,1.04 l 17.248,-6.421 14.562,-8.974 9.703,-10.21 4.863,-10.811 5.656,-83.009 0.114,-7.611 -3.922,-7.403 -3.243,-3.059 7.294,-1.305 10.277,-3.008 4.505,-2.941 -8.399,-73.692 z"
             fill_rule="evenodd"
             id="path26"
             inkscape:connector-curvature="0"
             style="fill:#fcaf3e;fill-opacity:1;stroke:none"
             sodipodi:nodetypes="cccccccccccccccccccccccccccccccccccccccccccccccccccccccccccccccccc" />
          <path
             style="fill:#cccccc;fill-opacity:1;stroke:none"
             d="m 567.51995,249.52993 c 32.44107,3.35001 53.99123,-28.46945 55.44835,-47.16269 2.57562,-24.02304 -11.04146,-50.11797 -34.36312,-58.44941 -11.64108,-4.47666 -27.04308,-2.6089 -38.12852,2.57213 -12.03957,13.35547 -15.65958,8.1963 -25.26984,40.91964 0,0 -3.98365,51.43416 42.31313,62.12033 z"
             id="path28"
             inkscape:connector-curvature="0"
             sodipodi:nodetypes="cccccc" />
          <path
             sodipodi:nodetypes="cccccc"
             inkscape:connector-curvature="0"
             id="path5065"
             d="m 588.35014,204.5379 c 9.3139,0.96179 15.501,-8.17364 15.91934,-13.54051 0.73946,-6.89707 -3.17003,-14.38898 -9.86573,-16.78095 -3.34218,-1.28525 -7.76413,-0.74902 -10.94678,0.73847 -3.45658,3.83438 -4.4959,2.35317 -7.25502,11.74811 0,0 -1.14372,14.76686 12.14819,17.83488 z"
             style="fill:#424242;fill-opacity:1;stroke:none" />
          <path
             sodipodi:nodetypes="cccccc"
             inkscape:connector-curvature="0"
             id="path5067"
             d="m 461.86805,246.99324 c 29.5107,2.83725 49.11425,-24.11179 50.43975,-39.94378 2.34296,-20.34598 -10.0441,-42.44671 -31.25913,-49.50292 -10.58955,-3.79144 -24.60031,-2.20957 -34.6844,2.17844 -10.95204,11.31123 -14.24506,6.94173 -22.98724,34.65632 0,0 -3.62381,43.56144 38.49102,52.61194 z"
             style="fill:#cccccc;fill-opacity:1;stroke:none" />
          <path
             style="fill:#424242;fill-opacity:1;stroke:none"
             d="m 491.07057,212.21265 c 9.3139,0.96179 15.501,-8.17364 15.91934,-13.54051 0.73946,-6.89707 -3.17003,-14.38898 -9.86573,-16.78095 -3.34218,-1.28525 -7.76413,-0.74902 -10.94678,0.73847 -3.45658,3.83438 -4.4959,2.35317 -7.25502,11.74811 0,0 -1.14372,14.76686 12.14819,17.83488 z"
             id="path5069"
             inkscape:connector-curvature="0"
             sodipodi:nodetypes="cccccc" />
          <path
             sodipodi:nodetypes="ccccccccccccccccccccccc"
             style="display:inline;fill:#f15363;fill-opacity:1;stroke:none;stroke-width:3;stroke-linecap:round;stroke-linejoin:round;stroke-opacity:1"
             inkscape:connector-curvature="0"
             d="m 404.48197,334.595 6.385,0.39 6.386,0.338 6.388,0.288 6.39,0.237 6.393,0.187 6.397,0.138 6.402,0.09 6.409,0.041 6.415,-0.006 8.981,-0.046 9.033,-0.071 9.074,-0.116 9.101,-0.181 9.118,-0.267 9.12,-0.372 9.113,-0.499 9.091,-0.645 9.058,-0.812 29.08921,-3.11959 c 0,0 1.09274,6.95711 -1.73868,17.67607 -52.47148,52.0992 -180.61398,17.02629 -189.95728,-15.05422 12.19056,1.43569 10.87233,0.8079 23.35275,1.80371 z"
             id="path5409" />
        </g>
        <g
           transform="matrix(1.057271,0,0,1.057271,-50.993793,-5.7157374)"
           id="g4861">
          <path
             sodipodi:nodetypes="cscccsccc"
             id="path4438"
             style="color:#000000;clip-rule:nonzero;display:inline;overflow:visible;visibility:visible;opacity:1;isolation:auto;mix-blend-mode:normal;color-interpolation:sRGB;color-interpolation-filters:linearRGB;solid-color:#000000;solid-opacity:1;fill:#fcaf3e;fill-opacity:1;fill-rule:nonzero;stroke:none;stroke-width:20.16681862;stroke-linecap:round;stroke-linejoin:round;stroke-miterlimit:4;stroke-dasharray:none;stroke-dashoffset:0;stroke-opacity:1;color-rendering:auto;image-rendering:auto;shape-rendering:auto;text-rendering:auto;enable-background:accumulate"
             d="m 870.55257,218.13314 c 10.9598,-1.55219 16.517,-26.30634 12.4122,-55.28995 -4.1047,-28.98363 -16.3171,-51.2212 -27.277,-49.66901 l -0.7841,-1.87163 c 0,0 -98.9914,14.01958 -281.7577,78.8222 -4.2295,0.599 -10.1484,15.21386 -7.789,31.874 2.3595,16.66014 12.1039,29.05669 16.3335,28.45769 l 287.3355,-32.1071 z"
             inkscape:connector-curvature="0" />
          <path
             inkscape:connector-curvature="0"
             d="m 871.19827,221.79207 c 10.9598,-1.55219 15.1864,-31.86766 11.0816,-60.85127 1.8557,-30.35463 -24.5503,-47.71811 -27.6306,-56.27572 l -176.0325,46.83774 c -4.2295,0.599 -9.1614,27.58278 -6.802,44.24292 2.3595,16.66014 16.974,42.44953 21.2036,41.85053 58.8325,-7.95148 119.3996,-7.47963 178.1799,-15.8042 z"
             style="color:#000000;clip-rule:nonzero;display:inline;overflow:visible;visibility:visible;opacity:1;isolation:auto;mix-blend-mode:normal;color-interpolation:sRGB;color-interpolation-filters:linearRGB;solid-color:#000000;solid-opacity:1;fill:#fcaf3e;fill-opacity:1;fill-rule:nonzero;stroke:none;stroke-width:20.16681862;stroke-linecap:round;stroke-linejoin:round;stroke-miterlimit:4;stroke-dasharray:none;stroke-dashoffset:0;stroke-opacity:1;color-rendering:auto;image-rendering:auto;shape-rendering:auto;text-rendering:auto;enable-background:accumulate"
             id="path4516"
             sodipodi:nodetypes="ccccscc" />
          <path
             sodipodi:nodetypes="sssss"
             id="path4514"
             style="color:#000000;clip-rule:nonzero;display:inline;overflow:visible;visibility:visible;opacity:1;isolation:auto;mix-blend-mode:normal;color-interpolation:sRGB;color-interpolation-filters:linearRGB;solid-color:#000000;solid-opacity:1;fill:#424242;fill-opacity:1;fill-rule:nonzero;stroke:#424242;stroke-width:7.5492382;stroke-linecap:round;stroke-linejoin:round;stroke-miterlimit:4;stroke-dasharray:none;stroke-dashoffset:0;stroke-opacity:1;color-rendering:auto;image-rendering:auto;shape-rendering:auto;text-rendering:auto;enable-background:accumulate"
             d="m 884.99027,160.31071 c 4.2998,30.23004 -1.5214,56.04873 -13.0017,57.66767 -11.4806,1.61896 -24.2729,-21.57493 -28.5727,-51.80497 -4.2998,-30.23005 1.5214,-56.04874 13.0018,-57.66768 11.4805,-1.61895 24.2729,21.57494 28.5726,51.80498 z"
             inkscape:connector-curvature="0" />
          <path
             inkscape:connector-curvature="0"
             d="m 691.66147,235.45001 c -8.1802,1.15851 -17.3581,-15.88372 -20.4995,-38.0649 -3.1414,-22.18117 0.9434,-41.10172 9.1235,-42.26022 m 172.1674,68.99806 c -10.9599,1.55219 -24.0854,-24.64235 -28.1901,-53.62596 -4.1048,-28.98362 2.0612,-58.30353 13.0211,-59.85571"
             style="color:#000000;clip-rule:nonzero;display:inline;overflow:visible;visibility:visible;opacity:1;isolation:auto;mix-blend-mode:normal;color-interpolation:sRGB;color-interpolation-filters:linearRGB;solid-color:#000000;solid-opacity:1;fill:#000000;fill-opacity:0;fill-rule:nonzero;stroke:#424242;stroke-width:7.5492382;stroke-linecap:round;stroke-linejoin:round;stroke-miterlimit:4;stroke-dasharray:none;stroke-dashoffset:0;stroke-opacity:1;color-rendering:auto;image-rendering:auto;shape-rendering:auto;text-rendering:auto;enable-background:accumulate"
             id="path4512"
             sodipodi:nodetypes="csccsc" />
        </g>
        <path
           sodipodi:nodetypes="ccccccccccc"
           inkscape:connector-curvature="0"
           style="display:inline;fill:#cccccc;fill-opacity:1;stroke:none"
           id="path4445"
           fill_rule="evenodd"
           d="m 712.73129,234.01704 -3.12367,-16.60342 -3.25877,-12.40059 -0.38135,-3.46462 -20.05657,-0.64655 -5.62271,5.41944 2.53663,16.2491 -6.28887,28.09859 32.59642,2.27962 4.27938,-15.20932 z" />
      </g>
      <g
         id="g4297"
         transform="matrix(1.3656687,0,0,1.3656687,-668.5194,-983.86974)">
        <path
           sodipodi:nodetypes="ccccccccccccccccccccccccsssssccccccccs"
           inkscape:connector-curvature="0"
           id="path4294"
           d="m 1293.0913,892.67116 c -6.3188,2.3e-4 -11.4412,5.12258 -11.4414,11.4414 l 0,277.87894 c 2e-4,6.3188 5.1226,11.4411 11.4414,11.4414 l 97.2774,0 c 6.3188,-3e-4 11.4411,-5.1226 11.4414,-11.4414 l 0,-277.87894 c -3e-4,-6.31882 -5.1226,-11.44117 -11.4414,-11.4414 z m 124.2871,0 c -6.3188,2.3e-4 -11.4412,5.12259 -11.4414,11.4414 l 0,277.87894 c 2e-4,6.3188 5.1226,11.4411 11.4414,11.4414 l 87.4024,0 c 6.3188,-3e-4 11.4411,-5.1226 11.4414,-11.4414 l 0,-148.2754 62.7656,0 c 6.3188,-3e-4 11.4412,-5.1226 11.4414,-11.4414 l 0,-72.77542 c -2e-4,-6.31882 -5.1226,-11.44117 -11.4414,-11.4414 l -62.7656,0 0,-33.94532 c -3e-4,-6.31882 -5.1226,-11.44117 -11.4414,-11.4414 z m -222.4941,103.55078 c -27.1606,0 -51.8914,11.04766 -69.7227,28.87886 -17.8313,17.8313 -28.8828,42.5648 -28.8828,69.7266 0,27.1618 11.0522,51.8921 28.8828,69.7227 17.8306,17.8306 42.5609,28.8828 69.7227,28.8828 0.5002,0 0.5983,-0.012 0.8769,-0.022 0.1906,0.012 0.3814,0.019 0.5723,0.022 l 67.8242,0 c 6.3188,-3e-4 11.4412,-5.1226 11.4414,-11.4414 l 0,-174.3282 c -2e-4,-6.3188 -5.1226,-11.44113 -11.4414,-11.44136 l -67.8242,0 c -0.1531,0.005 -0.3062,0.0125 -0.459,0.0234 -0.28,-0.011 -0.4205,-0.0234 -0.9902,-0.0234 z"
           style="display:inline;fill:#ffffff;fill-opacity:1" />
        <g
           id="g4165"
           transform="matrix(4.1419685,0,0,4.1419685,622.85418,-548.58154)"
           style="display:inline;fill:#f15363;fill-opacity:1"
           inkscape:export-xdpi="49.977276"
           inkscape:export-ydpi="49.977276">
          <g
             id="g5106"
             transform="matrix(0.81815283,0,0,0.81815283,38.92089,87.118968)"
             style="fill:#f15363;fill-opacity:1">
            <path
               sodipodi:nodetypes="sssssccccccs"
               inkscape:connector-curvature="0"
               style="color:#000000;clip-rule:nonzero;display:inline;overflow:visible;visibility:visible;opacity:1;isolation:auto;mix-blend-mode:normal;color-interpolation:sRGB;color-interpolation-filters:linearRGB;solid-color:#000000;solid-opacity:1;fill:#f15363;fill-opacity:1;fill-rule:evenodd;stroke:none;stroke-width:20;stroke-linecap:round;stroke-linejoin:round;stroke-miterlimit:4;stroke-dasharray:none;stroke-dashoffset:0;stroke-opacity:1;color-rendering:auto;image-rendering:auto;shape-rendering:auto;text-rendering:auto;enable-background:accumulate"
               d="m 121.23054,352.7539 c -7.10285,0 -13.53255,2.87849 -18.18726,7.5332 -4.654708,4.6547 -7.53442,11.08564 -7.53442,18.18849 0,7.10285 2.879712,13.53254 7.53442,18.18725 4.65471,4.65471 11.08441,7.53443 18.18726,7.53443 0.14332,0 0.28487,-0.009 0.42764,-0.011 l 0,0.011 20.0142,0 0,-51.44337 -20.0142,0 0,0.0111 c -0.14277,-0.003 -0.28432,-0.0111 -0.42764,-0.0111 z"
               id="path4151-5" />
            <rect
               y="322.19727"
               x="150.21101"
               height="82"
               width="28.70574"
               id="rect4158"
               style="color:#000000;clip-rule:nonzero;display:inline;overflow:visible;visibility:visible;opacity:1;isolation:auto;mix-blend-mode:normal;color-interpolation:sRGB;color-interpolation-filters:linearRGB;solid-color:#000000;solid-opacity:1;fill:#f15363;fill-opacity:1;fill-rule:evenodd;stroke:none;stroke-width:20;stroke-linecap:round;stroke-linejoin:round;stroke-miterlimit:4;stroke-dasharray:none;stroke-dashoffset:0;stroke-opacity:1;color-rendering:auto;image-rendering:auto;shape-rendering:auto;text-rendering:auto;enable-background:accumulate" />
            <g
               id="g5185"
               transform="translate(-51.564319,3.7058594e-4)"
               style="fill:#f15363;fill-opacity:1">
              <rect
                 y="322.1969"
                 x="238.45142"
                 height="82"
                 width="25.791561"
                 id="rect4161"
                 style="color:#000000;clip-rule:nonzero;display:inline;overflow:visible;visibility:visible;opacity:1;isolation:auto;mix-blend-mode:normal;color-interpolation:sRGB;color-interpolation-filters:linearRGB;solid-color:#000000;solid-opacity:1;fill:#f15363;fill-opacity:1;fill-rule:evenodd;stroke:none;stroke-width:20;stroke-linecap:round;stroke-linejoin:round;stroke-miterlimit:4;stroke-dasharray:none;stroke-dashoffset:0;stroke-opacity:1;color-rendering:auto;image-rendering:auto;shape-rendering:auto;text-rendering:auto;enable-background:accumulate" />
              <rect
                 style="color:#000000;clip-rule:nonzero;display:inline;overflow:visible;visibility:visible;opacity:1;isolation:auto;mix-blend-mode:normal;color-interpolation:sRGB;color-interpolation-filters:linearRGB;solid-color:#000000;solid-opacity:1;fill:#f15363;fill-opacity:1;fill-rule:evenodd;stroke:none;stroke-width:20;stroke-linecap:round;stroke-linejoin:round;stroke-miterlimit:4;stroke-dasharray:none;stroke-dashoffset:0;stroke-opacity:1;color-rendering:auto;image-rendering:auto;shape-rendering:auto;text-rendering:auto;enable-background:accumulate"
                 id="rect4163"
                 width="33.63308"
                 height="21.475943"
                 x="252.50783"
                 y="335.58975" />
            </g>
            <path
               id="path4351"
               d="m 121.23054,352.7539 c -7.10285,0 -13.53255,2.87849 -18.18726,7.5332 -4.654708,4.6547 -7.53442,11.08564 -7.53442,18.18849 0,7.10285 2.879712,13.53254 7.53442,18.18725 4.65471,4.65471 11.08441,7.53443 18.18726,7.53443 0.14332,0 0.28487,-0.009 0.42764,-0.011 l 0,0.011 20.0142,0 0,-51.44337 -20.0142,0 0,0.0111 c -0.14277,-0.003 -0.28432,-0.0111 -0.42764,-0.0111 z"
               style="color:#000000;clip-rule:nonzero;display:inline;overflow:visible;visibility:visible;opacity:1;isolation:auto;mix-blend-mode:normal;color-interpolation:sRGB;color-interpolation-filters:linearRGB;solid-color:#000000;solid-opacity:1;fill:#f15363;fill-opacity:1;fill-rule:evenodd;stroke:none;stroke-width:20;stroke-linecap:round;stroke-linejoin:round;stroke-miterlimit:4;stroke-dasharray:none;stroke-dashoffset:0;stroke-opacity:1;color-rendering:auto;image-rendering:auto;shape-rendering:auto;text-rendering:auto;enable-background:accumulate"
               inkscape:connector-curvature="0"
               sodipodi:nodetypes="sssssccccccs" />
          </g>
        </g>
      </g>
    </g>
    <g
       transform="translate(35.466102,-135)"
       id="g5426"
       style="fill:#000000" />
    <g
       inkscape:export-ydpi="49.977276"
       inkscape:export-xdpi="49.977276"
       style="display:inline;fill:#000000"
       transform="matrix(4.1419685,0,0,4.1419685,-413.67125,-839.17472)"
       id="g5440">
      <g
         transform="matrix(0.81815283,0,0,0.81815283,16.823807,83.251978)"
         id="g5442"
         style="fill:#000000">
        <g
           transform="translate(-51.564319,3.7058594e-4)"
           id="g5448"
           style="fill:#000000" />
      </g>
    </g>
    <g
       transform="translate(35.466102,-135)"
       id="g5477" />
  </g>
</svg>
