<?xml version="1.0" encoding="utf-8" standalone="no"?>
<!DOCTYPE svg PUBLIC "-//W3C//DTD SVG 1.1//EN"
  "http://www.w3.org/Graphics/SVG/1.1/DTD/svg11.dtd">
<!-- Created with matplotlib (http://matplotlib.org/) -->
<svg height="465pt" version="1.1" viewBox="0 0 879 465" width="879pt" xmlns="http://www.w3.org/2000/svg" xmlns:xlink="http://www.w3.org/1999/xlink">
 <defs>
  <style type="text/css">
*{stroke-linecap:butt;stroke-linejoin:round;}
  </style>
 </defs>
 <g id="figure_1">
  <g id="patch_1">
   <path d="M 0 465.12 
L 879.84 465.12 
L 879.84 0 
L 0 0 
z
" style="fill:#ffffff;"/>
  </g>
  <g id="axes_1">
   <g id="patch_2">
    <path d="M 83.794286 438.541714 
L 321.503219 438.541714 
L 321.503219 34.330286 
L 83.794286 34.330286 
z
" style="fill:#eaeaf2;"/>
   </g>
   <g id="matplotlib.axis_1">
    <g id="xtick_1">
     <g id="line2d_1">
      <path clip-path="url(#p4161216fc9)" d="M 143.221519 438.541714 
L 143.221519 34.330286 
" style="fill:none;stroke:#ffffff;stroke-linecap:round;"/>
     </g>
     <g id="line2d_2"/>
     <g id="text_1">
      <!-- childchild -->
      <defs>
       <path d="M 48.78125 52.59375 
L 48.78125 44.1875 
Q 44.96875 46.296875 41.140625 47.34375 
Q 37.3125 48.390625 33.40625 48.390625 
Q 24.65625 48.390625 19.8125 42.84375 
Q 14.984375 37.3125 14.984375 27.296875 
Q 14.984375 17.28125 19.8125 11.734375 
Q 24.65625 6.203125 33.40625 6.203125 
Q 37.3125 6.203125 41.140625 7.25 
Q 44.96875 8.296875 48.78125 10.40625 
L 48.78125 2.09375 
Q 45.015625 0.34375 40.984375 -0.53125 
Q 36.96875 -1.421875 32.421875 -1.421875 
Q 20.0625 -1.421875 12.78125 6.34375 
Q 5.515625 14.109375 5.515625 27.296875 
Q 5.515625 40.671875 12.859375 48.328125 
Q 20.21875 56 33.015625 56 
Q 37.15625 56 41.109375 55.140625 
Q 45.0625 54.296875 48.78125 52.59375 
z
" id="DejaVuSans-63"/>
       <path d="M 54.890625 33.015625 
L 54.890625 0 
L 45.90625 0 
L 45.90625 32.71875 
Q 45.90625 40.484375 42.875 44.328125 
Q 39.84375 48.1875 33.796875 48.1875 
Q 26.515625 48.1875 22.3125 43.546875 
Q 18.109375 38.921875 18.109375 30.90625 
L 18.109375 0 
L 9.078125 0 
L 9.078125 75.984375 
L 18.109375 75.984375 
L 18.109375 46.1875 
Q 21.34375 51.125 25.703125 53.5625 
Q 30.078125 56 35.796875 56 
Q 45.21875 56 50.046875 50.171875 
Q 54.890625 44.34375 54.890625 33.015625 
z
" id="DejaVuSans-68"/>
       <path d="M 9.421875 54.6875 
L 18.40625 54.6875 
L 18.40625 0 
L 9.421875 0 
z
M 9.421875 75.984375 
L 18.40625 75.984375 
L 18.40625 64.59375 
L 9.421875 64.59375 
z
" id="DejaVuSans-69"/>
       <path d="M 9.421875 75.984375 
L 18.40625 75.984375 
L 18.40625 0 
L 9.421875 0 
z
" id="DejaVuSans-6c"/>
       <path d="M 45.40625 46.390625 
L 45.40625 75.984375 
L 54.390625 75.984375 
L 54.390625 0 
L 45.40625 0 
L 45.40625 8.203125 
Q 42.578125 3.328125 38.25 0.953125 
Q 33.9375 -1.421875 27.875 -1.421875 
Q 17.96875 -1.421875 11.734375 6.484375 
Q 5.515625 14.40625 5.515625 27.296875 
Q 5.515625 40.1875 11.734375 48.09375 
Q 17.96875 56 27.875 56 
Q 33.9375 56 38.25 53.625 
Q 42.578125 51.265625 45.40625 46.390625 
z
M 14.796875 27.296875 
Q 14.796875 17.390625 18.875 11.75 
Q 22.953125 6.109375 30.078125 6.109375 
Q 37.203125 6.109375 41.296875 11.75 
Q 45.40625 17.390625 45.40625 27.296875 
Q 45.40625 37.203125 41.296875 42.84375 
Q 37.203125 48.484375 30.078125 48.484375 
Q 22.953125 48.484375 18.875 42.84375 
Q 14.796875 37.203125 14.796875 27.296875 
z
" id="DejaVuSans-64"/>
      </defs>
      <g style="fill:#262626;" transform="translate(119.480894 453.140152)scale(0.1 -0.1)">
       <use xlink:href="#DejaVuSans-63"/>
       <use x="54.980469" xlink:href="#DejaVuSans-68"/>
       <use x="118.359375" xlink:href="#DejaVuSans-69"/>
       <use x="146.142578" xlink:href="#DejaVuSans-6c"/>
       <use x="173.925781" xlink:href="#DejaVuSans-64"/>
       <use x="237.402344" xlink:href="#DejaVuSans-63"/>
       <use x="292.382812" xlink:href="#DejaVuSans-68"/>
       <use x="355.761719" xlink:href="#DejaVuSans-69"/>
       <use x="383.544922" xlink:href="#DejaVuSans-6c"/>
       <use x="411.328125" xlink:href="#DejaVuSans-64"/>
      </g>
     </g>
    </g>
    <g id="xtick_2">
     <g id="line2d_3">
      <path clip-path="url(#p4161216fc9)" d="M 262.075986 438.541714 
L 262.075986 34.330286 
" style="fill:none;stroke:#ffffff;stroke-linecap:round;"/>
     </g>
     <g id="line2d_4"/>
     <g id="text_2">
      <!-- childrobot -->
      <defs>
       <path d="M 41.109375 46.296875 
Q 39.59375 47.171875 37.8125 47.578125 
Q 36.03125 48 33.890625 48 
Q 26.265625 48 22.1875 43.046875 
Q 18.109375 38.09375 18.109375 28.8125 
L 18.109375 0 
L 9.078125 0 
L 9.078125 54.6875 
L 18.109375 54.6875 
L 18.109375 46.1875 
Q 20.953125 51.171875 25.484375 53.578125 
Q 30.03125 56 36.53125 56 
Q 37.453125 56 38.578125 55.875 
Q 39.703125 55.765625 41.0625 55.515625 
z
" id="DejaVuSans-72"/>
       <path d="M 30.609375 48.390625 
Q 23.390625 48.390625 19.1875 42.75 
Q 14.984375 37.109375 14.984375 27.296875 
Q 14.984375 17.484375 19.15625 11.84375 
Q 23.34375 6.203125 30.609375 6.203125 
Q 37.796875 6.203125 41.984375 11.859375 
Q 46.1875 17.53125 46.1875 27.296875 
Q 46.1875 37.015625 41.984375 42.703125 
Q 37.796875 48.390625 30.609375 48.390625 
z
M 30.609375 56 
Q 42.328125 56 49.015625 48.375 
Q 55.71875 40.765625 55.71875 27.296875 
Q 55.71875 13.875 49.015625 6.21875 
Q 42.328125 -1.421875 30.609375 -1.421875 
Q 18.84375 -1.421875 12.171875 6.21875 
Q 5.515625 13.875 5.515625 27.296875 
Q 5.515625 40.765625 12.171875 48.375 
Q 18.84375 56 30.609375 56 
z
" id="DejaVuSans-6f"/>
       <path d="M 48.6875 27.296875 
Q 48.6875 37.203125 44.609375 42.84375 
Q 40.53125 48.484375 33.40625 48.484375 
Q 26.265625 48.484375 22.1875 42.84375 
Q 18.109375 37.203125 18.109375 27.296875 
Q 18.109375 17.390625 22.1875 11.75 
Q 26.265625 6.109375 33.40625 6.109375 
Q 40.53125 6.109375 44.609375 11.75 
Q 48.6875 17.390625 48.6875 27.296875 
z
M 18.109375 46.390625 
Q 20.953125 51.265625 25.265625 53.625 
Q 29.59375 56 35.59375 56 
Q 45.5625 56 51.78125 48.09375 
Q 58.015625 40.1875 58.015625 27.296875 
Q 58.015625 14.40625 51.78125 6.484375 
Q 45.5625 -1.421875 35.59375 -1.421875 
Q 29.59375 -1.421875 25.265625 0.953125 
Q 20.953125 3.328125 18.109375 8.203125 
L 18.109375 0 
L 9.078125 0 
L 9.078125 75.984375 
L 18.109375 75.984375 
z
" id="DejaVuSans-62"/>
       <path d="M 18.3125 70.21875 
L 18.3125 54.6875 
L 36.8125 54.6875 
L 36.8125 47.703125 
L 18.3125 47.703125 
L 18.3125 18.015625 
Q 18.3125 11.328125 20.140625 9.421875 
Q 21.96875 7.515625 27.59375 7.515625 
L 36.8125 7.515625 
L 36.8125 0 
L 27.59375 0 
Q 17.1875 0 13.234375 3.875 
Q 9.28125 7.765625 9.28125 18.015625 
L 9.28125 47.703125 
L 2.6875 47.703125 
L 2.6875 54.6875 
L 9.28125 54.6875 
L 9.28125 70.21875 
z
" id="DejaVuSans-74"/>
      </defs>
      <g style="fill:#262626;" transform="translate(236.898642 453.140152)scale(0.1 -0.1)">
       <use xlink:href="#DejaVuSans-63"/>
       <use x="54.980469" xlink:href="#DejaVuSans-68"/>
       <use x="118.359375" xlink:href="#DejaVuSans-69"/>
       <use x="146.142578" xlink:href="#DejaVuSans-6c"/>
       <use x="173.925781" xlink:href="#DejaVuSans-64"/>
       <use x="237.402344" xlink:href="#DejaVuSans-72"/>
       <use x="278.484375" xlink:href="#DejaVuSans-6f"/>
       <use x="339.666016" xlink:href="#DejaVuSans-62"/>
       <use x="403.142578" xlink:href="#DejaVuSans-6f"/>
       <use x="464.324219" xlink:href="#DejaVuSans-74"/>
      </g>
     </g>
    </g>
   </g>
   <g id="matplotlib.axis_2">
    <g id="ytick_1">
     <g id="line2d_5"/>
     <g id="text_3">
      <!-- 00h00m -->
      <defs>
       <path d="M 31.78125 66.40625 
Q 24.171875 66.40625 20.328125 58.90625 
Q 16.5 51.421875 16.5 36.375 
Q 16.5 21.390625 20.328125 13.890625 
Q 24.171875 6.390625 31.78125 6.390625 
Q 39.453125 6.390625 43.28125 13.890625 
Q 47.125 21.390625 47.125 36.375 
Q 47.125 51.421875 43.28125 58.90625 
Q 39.453125 66.40625 31.78125 66.40625 
z
M 31.78125 74.21875 
Q 44.046875 74.21875 50.515625 64.515625 
Q 56.984375 54.828125 56.984375 36.375 
Q 56.984375 17.96875 50.515625 8.265625 
Q 44.046875 -1.421875 31.78125 -1.421875 
Q 19.53125 -1.421875 13.0625 8.265625 
Q 6.59375 17.96875 6.59375 36.375 
Q 6.59375 54.828125 13.0625 64.515625 
Q 19.53125 74.21875 31.78125 74.21875 
z
" id="DejaVuSans-30"/>
       <path d="M 52 44.1875 
Q 55.375 50.25 60.0625 53.125 
Q 64.75 56 71.09375 56 
Q 79.640625 56 84.28125 50.015625 
Q 88.921875 44.046875 88.921875 33.015625 
L 88.921875 0 
L 79.890625 0 
L 79.890625 32.71875 
Q 79.890625 40.578125 77.09375 44.375 
Q 74.3125 48.1875 68.609375 48.1875 
Q 61.625 48.1875 57.5625 43.546875 
Q 53.515625 38.921875 53.515625 30.90625 
L 53.515625 0 
L 44.484375 0 
L 44.484375 32.71875 
Q 44.484375 40.625 41.703125 44.40625 
Q 38.921875 48.1875 33.109375 48.1875 
Q 26.21875 48.1875 22.15625 43.53125 
Q 18.109375 38.875 18.109375 30.90625 
L 18.109375 0 
L 9.078125 0 
L 9.078125 54.6875 
L 18.109375 54.6875 
L 18.109375 46.1875 
Q 21.1875 51.21875 25.484375 53.609375 
Q 29.78125 56 35.6875 56 
Q 41.65625 56 45.828125 52.96875 
Q 50 49.953125 52 44.1875 
z
" id="DejaVuSans-6d"/>
      </defs>
      <g style="fill:#262626;" transform="translate(35.266161 442.340933)scale(0.1 -0.1)">
       <use xlink:href="#DejaVuSans-30"/>
       <use x="63.623047" xlink:href="#DejaVuSans-30"/>
       <use x="127.246094" xlink:href="#DejaVuSans-68"/>
       <use x="190.625" xlink:href="#DejaVuSans-30"/>
       <use x="254.248047" xlink:href="#DejaVuSans-30"/>
       <use x="317.871094" xlink:href="#DejaVuSans-6d"/>
      </g>
     </g>
    </g>
    <g id="ytick_2">
     <g id="line2d_6"/>
     <g id="text_4">
      <!-- 05h00m -->
      <defs>
       <path d="M 10.796875 72.90625 
L 49.515625 72.90625 
L 49.515625 64.59375 
L 19.828125 64.59375 
L 19.828125 46.734375 
Q 21.96875 47.46875 24.109375 47.828125 
Q 26.265625 48.1875 28.421875 48.1875 
Q 40.625 48.1875 47.75 41.5 
Q 54.890625 34.8125 54.890625 23.390625 
Q 54.890625 11.625 47.5625 5.09375 
Q 40.234375 -1.421875 26.90625 -1.421875 
Q 22.3125 -1.421875 17.546875 -0.640625 
Q 12.796875 0.140625 7.71875 1.703125 
L 7.71875 11.625 
Q 12.109375 9.234375 16.796875 8.0625 
Q 21.484375 6.890625 26.703125 6.890625 
Q 35.15625 6.890625 40.078125 11.328125 
Q 45.015625 15.765625 45.015625 23.390625 
Q 45.015625 31 40.078125 35.4375 
Q 35.15625 39.890625 26.703125 39.890625 
Q 22.75 39.890625 18.8125 39.015625 
Q 14.890625 38.140625 10.796875 36.28125 
z
" id="DejaVuSans-35"/>
      </defs>
      <g style="fill:#262626;" transform="translate(35.266161 393.025974)scale(0.1 -0.1)">
       <use xlink:href="#DejaVuSans-30"/>
       <use x="63.623047" xlink:href="#DejaVuSans-35"/>
       <use x="127.246094" xlink:href="#DejaVuSans-68"/>
       <use x="190.625" xlink:href="#DejaVuSans-30"/>
       <use x="254.248047" xlink:href="#DejaVuSans-30"/>
       <use x="317.871094" xlink:href="#DejaVuSans-6d"/>
      </g>
     </g>
    </g>
    <g id="ytick_3">
     <g id="line2d_7"/>
     <g id="text_5">
      <!-- 10h00m -->
      <defs>
       <path d="M 12.40625 8.296875 
L 28.515625 8.296875 
L 28.515625 63.921875 
L 10.984375 60.40625 
L 10.984375 69.390625 
L 28.421875 72.90625 
L 38.28125 72.90625 
L 38.28125 8.296875 
L 54.390625 8.296875 
L 54.390625 0 
L 12.40625 0 
z
" id="DejaVuSans-31"/>
      </defs>
      <g style="fill:#262626;" transform="translate(35.266161 343.711015)scale(0.1 -0.1)">
       <use xlink:href="#DejaVuSans-31"/>
       <use x="63.623047" xlink:href="#DejaVuSans-30"/>
       <use x="127.246094" xlink:href="#DejaVuSans-68"/>
       <use x="190.625" xlink:href="#DejaVuSans-30"/>
       <use x="254.248047" xlink:href="#DejaVuSans-30"/>
       <use x="317.871094" xlink:href="#DejaVuSans-6d"/>
      </g>
     </g>
    </g>
    <g id="ytick_4">
     <g id="line2d_8"/>
     <g id="text_6">
      <!-- 15h00m -->
      <g style="fill:#262626;" transform="translate(35.266161 294.396056)scale(0.1 -0.1)">
       <use xlink:href="#DejaVuSans-31"/>
       <use x="63.623047" xlink:href="#DejaVuSans-35"/>
       <use x="127.246094" xlink:href="#DejaVuSans-68"/>
       <use x="190.625" xlink:href="#DejaVuSans-30"/>
       <use x="254.248047" xlink:href="#DejaVuSans-30"/>
       <use x="317.871094" xlink:href="#DejaVuSans-6d"/>
      </g>
     </g>
    </g>
    <g id="ytick_5">
     <g id="line2d_9"/>
     <g id="text_7">
      <!-- 20h00m -->
      <defs>
       <path d="M 19.1875 8.296875 
L 53.609375 8.296875 
L 53.609375 0 
L 7.328125 0 
L 7.328125 8.296875 
Q 12.9375 14.109375 22.625 23.890625 
Q 32.328125 33.6875 34.8125 36.53125 
Q 39.546875 41.84375 41.421875 45.53125 
Q 43.3125 49.21875 43.3125 52.78125 
Q 43.3125 58.59375 39.234375 62.25 
Q 35.15625 65.921875 28.609375 65.921875 
Q 23.96875 65.921875 18.8125 64.3125 
Q 13.671875 62.703125 7.8125 59.421875 
L 7.8125 69.390625 
Q 13.765625 71.78125 18.9375 73 
Q 24.125 74.21875 28.421875 74.21875 
Q 39.75 74.21875 46.484375 68.546875 
Q 53.21875 62.890625 53.21875 53.421875 
Q 53.21875 48.921875 51.53125 44.890625 
Q 49.859375 40.875 45.40625 35.40625 
Q 44.1875 33.984375 37.640625 27.21875 
Q 31.109375 20.453125 19.1875 8.296875 
z
" id="DejaVuSans-32"/>
      </defs>
      <g style="fill:#262626;" transform="translate(35.266161 245.081098)scale(0.1 -0.1)">
       <use xlink:href="#DejaVuSans-32"/>
       <use x="63.623047" xlink:href="#DejaVuSans-30"/>
       <use x="127.246094" xlink:href="#DejaVuSans-68"/>
       <use x="190.625" xlink:href="#DejaVuSans-30"/>
       <use x="254.248047" xlink:href="#DejaVuSans-30"/>
       <use x="317.871094" xlink:href="#DejaVuSans-6d"/>
      </g>
     </g>
    </g>
    <g id="ytick_6">
     <g id="line2d_10"/>
     <g id="text_8">
      <!-- 25h00m -->
      <g style="fill:#262626;" transform="translate(35.266161 195.766139)scale(0.1 -0.1)">
       <use xlink:href="#DejaVuSans-32"/>
       <use x="63.623047" xlink:href="#DejaVuSans-35"/>
       <use x="127.246094" xlink:href="#DejaVuSans-68"/>
       <use x="190.625" xlink:href="#DejaVuSans-30"/>
       <use x="254.248047" xlink:href="#DejaVuSans-30"/>
       <use x="317.871094" xlink:href="#DejaVuSans-6d"/>
      </g>
     </g>
    </g>
    <g id="ytick_7">
     <g id="line2d_11"/>
     <g id="text_9">
      <!-- 30h00m -->
      <defs>
       <path d="M 40.578125 39.3125 
Q 47.65625 37.796875 51.625 33 
Q 55.609375 28.21875 55.609375 21.1875 
Q 55.609375 10.40625 48.1875 4.484375 
Q 40.765625 -1.421875 27.09375 -1.421875 
Q 22.515625 -1.421875 17.65625 -0.515625 
Q 12.796875 0.390625 7.625 2.203125 
L 7.625 11.71875 
Q 11.71875 9.328125 16.59375 8.109375 
Q 21.484375 6.890625 26.8125 6.890625 
Q 36.078125 6.890625 40.9375 10.546875 
Q 45.796875 14.203125 45.796875 21.1875 
Q 45.796875 27.640625 41.28125 31.265625 
Q 36.765625 34.90625 28.71875 34.90625 
L 20.21875 34.90625 
L 20.21875 43.015625 
L 29.109375 43.015625 
Q 36.375 43.015625 40.234375 45.921875 
Q 44.09375 48.828125 44.09375 54.296875 
Q 44.09375 59.90625 40.109375 62.90625 
Q 36.140625 65.921875 28.71875 65.921875 
Q 24.65625 65.921875 20.015625 65.03125 
Q 15.375 64.15625 9.8125 62.3125 
L 9.8125 71.09375 
Q 15.4375 72.65625 20.34375 73.4375 
Q 25.25 74.21875 29.59375 74.21875 
Q 40.828125 74.21875 47.359375 69.109375 
Q 53.90625 64.015625 53.90625 55.328125 
Q 53.90625 49.265625 50.4375 45.09375 
Q 46.96875 40.921875 40.578125 39.3125 
z
" id="DejaVuSans-33"/>
      </defs>
      <g style="fill:#262626;" transform="translate(35.266161 146.45118)scale(0.1 -0.1)">
       <use xlink:href="#DejaVuSans-33"/>
       <use x="63.623047" xlink:href="#DejaVuSans-30"/>
       <use x="127.246094" xlink:href="#DejaVuSans-68"/>
       <use x="190.625" xlink:href="#DejaVuSans-30"/>
       <use x="254.248047" xlink:href="#DejaVuSans-30"/>
       <use x="317.871094" xlink:href="#DejaVuSans-6d"/>
      </g>
     </g>
    </g>
    <g id="ytick_8">
     <g id="line2d_12"/>
     <g id="text_10">
      <!-- 35h00m -->
      <g style="fill:#262626;" transform="translate(35.266161 97.136221)scale(0.1 -0.1)">
       <use xlink:href="#DejaVuSans-33"/>
       <use x="63.623047" xlink:href="#DejaVuSans-35"/>
       <use x="127.246094" xlink:href="#DejaVuSans-68"/>
       <use x="190.625" xlink:href="#DejaVuSans-30"/>
       <use x="254.248047" xlink:href="#DejaVuSans-30"/>
       <use x="317.871094" xlink:href="#DejaVuSans-6d"/>
      </g>
     </g>
    </g>
    <g id="ytick_9">
     <g id="line2d_13"/>
     <g id="text_11">
      <!-- 40h00m -->
      <defs>
       <path d="M 37.796875 64.3125 
L 12.890625 25.390625 
L 37.796875 25.390625 
z
M 35.203125 72.90625 
L 47.609375 72.90625 
L 47.609375 25.390625 
L 58.015625 25.390625 
L 58.015625 17.1875 
L 47.609375 17.1875 
L 47.609375 0 
L 37.796875 0 
L 37.796875 17.1875 
L 4.890625 17.1875 
L 4.890625 26.703125 
z
" id="DejaVuSans-34"/>
      </defs>
      <g style="fill:#262626;" transform="translate(35.266161 47.821262)scale(0.1 -0.1)">
       <use xlink:href="#DejaVuSans-34"/>
       <use x="63.623047" xlink:href="#DejaVuSans-30"/>
       <use x="127.246094" xlink:href="#DejaVuSans-68"/>
       <use x="190.625" xlink:href="#DejaVuSans-30"/>
       <use x="254.248047" xlink:href="#DejaVuSans-30"/>
       <use x="317.871094" xlink:href="#DejaVuSans-6d"/>
      </g>
     </g>
    </g>
    <g id="ytick_10">
     <g id="line2d_14"/>
    </g>
    <g id="ytick_11">
     <g id="line2d_15"/>
    </g>
    <g id="ytick_12">
     <g id="line2d_16"/>
    </g>
    <g id="ytick_13">
     <g id="line2d_17"/>
    </g>
    <g id="ytick_14">
     <g id="line2d_18"/>
    </g>
    <g id="ytick_15">
     <g id="line2d_19"/>
    </g>
    <g id="ytick_16">
     <g id="line2d_20"/>
    </g>
    <g id="ytick_17">
     <g id="line2d_21"/>
    </g>
    <g id="text_12">
     <!-- Total annotated time -->
     <defs>
      <path d="M -0.296875 72.90625 
L 61.375 72.90625 
L 61.375 64.59375 
L 35.5 64.59375 
L 35.5 0 
L 25.59375 0 
L 25.59375 64.59375 
L -0.296875 64.59375 
z
" id="DejaVuSans-54"/>
      <path d="M 34.28125 27.484375 
Q 23.390625 27.484375 19.1875 25 
Q 14.984375 22.515625 14.984375 16.5 
Q 14.984375 11.71875 18.140625 8.90625 
Q 21.296875 6.109375 26.703125 6.109375 
Q 34.1875 6.109375 38.703125 11.40625 
Q 43.21875 16.703125 43.21875 25.484375 
L 43.21875 27.484375 
z
M 52.203125 31.203125 
L 52.203125 0 
L 43.21875 0 
L 43.21875 8.296875 
Q 40.140625 3.328125 35.546875 0.953125 
Q 30.953125 -1.421875 24.3125 -1.421875 
Q 15.921875 -1.421875 10.953125 3.296875 
Q 6 8.015625 6 15.921875 
Q 6 25.140625 12.171875 29.828125 
Q 18.359375 34.515625 30.609375 34.515625 
L 43.21875 34.515625 
L 43.21875 35.40625 
Q 43.21875 41.609375 39.140625 45 
Q 35.0625 48.390625 27.6875 48.390625 
Q 23 48.390625 18.546875 47.265625 
Q 14.109375 46.140625 10.015625 43.890625 
L 10.015625 52.203125 
Q 14.9375 54.109375 19.578125 55.046875 
Q 24.21875 56 28.609375 56 
Q 40.484375 56 46.34375 49.84375 
Q 52.203125 43.703125 52.203125 31.203125 
z
" id="DejaVuSans-61"/>
      <path id="DejaVuSans-20"/>
      <path d="M 54.890625 33.015625 
L 54.890625 0 
L 45.90625 0 
L 45.90625 32.71875 
Q 45.90625 40.484375 42.875 44.328125 
Q 39.84375 48.1875 33.796875 48.1875 
Q 26.515625 48.1875 22.3125 43.546875 
Q 18.109375 38.921875 18.109375 30.90625 
L 18.109375 0 
L 9.078125 0 
L 9.078125 54.6875 
L 18.109375 54.6875 
L 18.109375 46.1875 
Q 21.34375 51.125 25.703125 53.5625 
Q 30.078125 56 35.796875 56 
Q 45.21875 56 50.046875 50.171875 
Q 54.890625 44.34375 54.890625 33.015625 
z
" id="DejaVuSans-6e"/>
      <path d="M 56.203125 29.59375 
L 56.203125 25.203125 
L 14.890625 25.203125 
Q 15.484375 15.921875 20.484375 11.0625 
Q 25.484375 6.203125 34.421875 6.203125 
Q 39.59375 6.203125 44.453125 7.46875 
Q 49.3125 8.734375 54.109375 11.28125 
L 54.109375 2.78125 
Q 49.265625 0.734375 44.1875 -0.34375 
Q 39.109375 -1.421875 33.890625 -1.421875 
Q 20.796875 -1.421875 13.15625 6.1875 
Q 5.515625 13.8125 5.515625 26.8125 
Q 5.515625 40.234375 12.765625 48.109375 
Q 20.015625 56 32.328125 56 
Q 43.359375 56 49.78125 48.890625 
Q 56.203125 41.796875 56.203125 29.59375 
z
M 47.21875 32.234375 
Q 47.125 39.59375 43.09375 43.984375 
Q 39.0625 48.390625 32.421875 48.390625 
Q 24.90625 48.390625 20.390625 44.140625 
Q 15.875 39.890625 15.1875 32.171875 
z
" id="DejaVuSans-65"/>
     </defs>
     <g style="fill:#262626;" transform="translate(27.106786 341.803187)rotate(-90)scale(0.2 -0.2)">
      <use xlink:href="#DejaVuSans-54"/>
      <use x="60.818359" xlink:href="#DejaVuSans-6f"/>
      <use x="122" xlink:href="#DejaVuSans-74"/>
      <use x="161.208984" xlink:href="#DejaVuSans-61"/>
      <use x="222.488281" xlink:href="#DejaVuSans-6c"/>
      <use x="250.271484" xlink:href="#DejaVuSans-20"/>
      <use x="282.058594" xlink:href="#DejaVuSans-61"/>
      <use x="343.337891" xlink:href="#DejaVuSans-6e"/>
      <use x="406.716797" xlink:href="#DejaVuSans-6e"/>
      <use x="470.095703" xlink:href="#DejaVuSans-6f"/>
      <use x="531.277344" xlink:href="#DejaVuSans-74"/>
      <use x="570.486328" xlink:href="#DejaVuSans-61"/>
      <use x="631.765625" xlink:href="#DejaVuSans-74"/>
      <use x="670.974609" xlink:href="#DejaVuSans-65"/>
      <use x="732.498047" xlink:href="#DejaVuSans-64"/>
      <use x="795.974609" xlink:href="#DejaVuSans-20"/>
      <use x="827.761719" xlink:href="#DejaVuSans-74"/>
      <use x="866.970703" xlink:href="#DejaVuSans-69"/>
      <use x="894.753906" xlink:href="#DejaVuSans-6d"/>
      <use x="992.166016" xlink:href="#DejaVuSans-65"/>
     </g>
    </g>
   </g>
   <g id="patch_3">
    <path clip-path="url(#p4161216fc9)" d="M 113.507902 438.541714 
L 172.935136 438.541714 
L 172.935136 364.036376 
L 113.507902 364.036376 
z
" style="fill:#4c72b0;"/>
   </g>
   <g id="patch_4">
    <path clip-path="url(#p4161216fc9)" d="M 232.362369 438.541714 
L 291.789603 438.541714 
L 291.789603 424.787458 
L 232.362369 424.787458 
z
" style="fill:#4c72b0;"/>
   </g>
   <g id="patch_5">
    <path clip-path="url(#p4161216fc9)" d="M 113.507902 364.036376 
L 172.935136 364.036376 
L 172.935136 337.983524 
L 113.507902 337.983524 
z
" style="fill:#55a868;"/>
   </g>
   <g id="patch_6">
    <path clip-path="url(#p4161216fc9)" d="M 232.362369 424.787458 
L 291.789603 424.787458 
L 291.789603 422.552639 
L 232.362369 422.552639 
z
" style="fill:#55a868;"/>
   </g>
   <g id="patch_7">
    <path clip-path="url(#p4161216fc9)" d="M 113.507902 337.983524 
L 172.935136 337.983524 
L 172.935136 265.250886 
L 113.507902 265.250886 
z
" style="fill:#c44e52;"/>
   </g>
   <g id="patch_8">
    <path clip-path="url(#p4161216fc9)" d="M 232.362369 422.552639 
L 291.789603 422.552639 
L 291.789603 409.56925 
L 232.362369 409.56925 
z
" style="fill:#c44e52;"/>
   </g>
   <g id="patch_9">
    <path clip-path="url(#p4161216fc9)" d="M 113.507902 265.250886 
L 172.935136 265.250886 
L 172.935136 53.578449 
L 113.507902 53.578449 
z
" style="fill:#8172b2;"/>
   </g>
   <g id="patch_10">
    <path clip-path="url(#p4161216fc9)" d="M 232.362369 409.56925 
L 291.789603 409.56925 
L 291.789603 359.057514 
L 232.362369 359.057514 
z
" style="fill:#8172b2;"/>
   </g>
   <g id="patch_11">
    <path d="M 83.794286 438.541714 
L 83.794286 34.330286 
" style="fill:none;"/>
   </g>
   <g id="patch_12">
    <path d="M 321.503219 438.541714 
L 321.503219 34.330286 
" style="fill:none;"/>
   </g>
   <g id="patch_13">
    <path d="M 83.794286 438.541714 
L 321.503219 438.541714 
" style="fill:none;"/>
   </g>
   <g id="patch_14">
    <path d="M 83.794286 34.330286 
L 321.503219 34.330286 
" style="fill:none;"/>
   </g>
   <g id="text_13">
    <!-- task engagement -->
    <defs>
     <path d="M 44.28125 53.078125 
L 44.28125 44.578125 
Q 40.484375 46.53125 36.375 47.5 
Q 32.28125 48.484375 27.875 48.484375 
Q 21.1875 48.484375 17.84375 46.4375 
Q 14.5 44.390625 14.5 40.28125 
Q 14.5 37.15625 16.890625 35.375 
Q 19.28125 33.59375 26.515625 31.984375 
L 29.59375 31.296875 
Q 39.15625 29.25 43.1875 25.515625 
Q 47.21875 21.78125 47.21875 15.09375 
Q 47.21875 7.46875 41.1875 3.015625 
Q 35.15625 -1.421875 24.609375 -1.421875 
Q 20.21875 -1.421875 15.453125 -0.5625 
Q 10.6875 0.296875 5.421875 2 
L 5.421875 11.28125 
Q 10.40625 8.6875 15.234375 7.390625 
Q 20.0625 6.109375 24.8125 6.109375 
Q 31.15625 6.109375 34.5625 8.28125 
Q 37.984375 10.453125 37.984375 14.40625 
Q 37.984375 18.0625 35.515625 20.015625 
Q 33.0625 21.96875 24.703125 23.78125 
L 21.578125 24.515625 
Q 13.234375 26.265625 9.515625 29.90625 
Q 5.8125 33.546875 5.8125 39.890625 
Q 5.8125 47.609375 11.28125 51.796875 
Q 16.75 56 26.8125 56 
Q 31.78125 56 36.171875 55.265625 
Q 40.578125 54.546875 44.28125 53.078125 
z
" id="DejaVuSans-73"/>
     <path d="M 9.078125 75.984375 
L 18.109375 75.984375 
L 18.109375 31.109375 
L 44.921875 54.6875 
L 56.390625 54.6875 
L 27.390625 29.109375 
L 57.625 0 
L 45.90625 0 
L 18.109375 26.703125 
L 18.109375 0 
L 9.078125 0 
z
" id="DejaVuSans-6b"/>
     <path d="M 45.40625 27.984375 
Q 45.40625 37.75 41.375 43.109375 
Q 37.359375 48.484375 30.078125 48.484375 
Q 22.859375 48.484375 18.828125 43.109375 
Q 14.796875 37.75 14.796875 27.984375 
Q 14.796875 18.265625 18.828125 12.890625 
Q 22.859375 7.515625 30.078125 7.515625 
Q 37.359375 7.515625 41.375 12.890625 
Q 45.40625 18.265625 45.40625 27.984375 
z
M 54.390625 6.78125 
Q 54.390625 -7.171875 48.1875 -13.984375 
Q 42 -20.796875 29.203125 -20.796875 
Q 24.46875 -20.796875 20.265625 -20.09375 
Q 16.0625 -19.390625 12.109375 -17.921875 
L 12.109375 -9.1875 
Q 16.0625 -11.328125 19.921875 -12.34375 
Q 23.78125 -13.375 27.78125 -13.375 
Q 36.625 -13.375 41.015625 -8.765625 
Q 45.40625 -4.15625 45.40625 5.171875 
L 45.40625 9.625 
Q 42.625 4.78125 38.28125 2.390625 
Q 33.9375 0 27.875 0 
Q 17.828125 0 11.671875 7.65625 
Q 5.515625 15.328125 5.515625 27.984375 
Q 5.515625 40.671875 11.671875 48.328125 
Q 17.828125 56 27.875 56 
Q 33.9375 56 38.28125 53.609375 
Q 42.625 51.21875 45.40625 46.390625 
L 45.40625 54.6875 
L 54.390625 54.6875 
z
" id="DejaVuSans-67"/>
    </defs>
    <g style="fill:#262626;" transform="translate(114.801878 28.330286)scale(0.2 -0.2)">
     <use xlink:href="#DejaVuSans-74"/>
     <use x="39.208984" xlink:href="#DejaVuSans-61"/>
     <use x="100.488281" xlink:href="#DejaVuSans-73"/>
     <use x="152.587891" xlink:href="#DejaVuSans-6b"/>
     <use x="210.498047" xlink:href="#DejaVuSans-20"/>
     <use x="242.285156" xlink:href="#DejaVuSans-65"/>
     <use x="303.808594" xlink:href="#DejaVuSans-6e"/>
     <use x="367.1875" xlink:href="#DejaVuSans-67"/>
     <use x="430.664062" xlink:href="#DejaVuSans-61"/>
     <use x="491.943359" xlink:href="#DejaVuSans-67"/>
     <use x="555.419922" xlink:href="#DejaVuSans-65"/>
     <use x="616.943359" xlink:href="#DejaVuSans-6d"/>
     <use x="714.355469" xlink:href="#DejaVuSans-65"/>
     <use x="775.878906" xlink:href="#DejaVuSans-6e"/>
     <use x="839.257812" xlink:href="#DejaVuSans-74"/>
    </g>
   </g>
   <g id="legend_1">
    <g id="patch_15">
     <path d="M 220.220407 50.928723 
L 240.220407 50.928723 
L 240.220407 43.928723 
L 220.220407 43.928723 
z
" style="fill:#8172b2;"/>
    </g>
    <g id="text_14">
     <!-- goaloriented -->
     <g style="fill:#262626;" transform="translate(248.220407 50.928723)scale(0.1 -0.1)">
      <use xlink:href="#DejaVuSans-67"/>
      <use x="63.476562" xlink:href="#DejaVuSans-6f"/>
      <use x="124.658203" xlink:href="#DejaVuSans-61"/>
      <use x="185.9375" xlink:href="#DejaVuSans-6c"/>
      <use x="213.720703" xlink:href="#DejaVuSans-6f"/>
      <use x="274.902344" xlink:href="#DejaVuSans-72"/>
      <use x="316.015625" xlink:href="#DejaVuSans-69"/>
      <use x="343.798828" xlink:href="#DejaVuSans-65"/>
      <use x="405.322266" xlink:href="#DejaVuSans-6e"/>
      <use x="468.701172" xlink:href="#DejaVuSans-74"/>
      <use x="507.910156" xlink:href="#DejaVuSans-65"/>
      <use x="569.433594" xlink:href="#DejaVuSans-64"/>
     </g>
    </g>
    <g id="patch_16">
     <path d="M 220.220407 65.606848 
L 240.220407 65.606848 
L 240.220407 58.606848 
L 220.220407 58.606848 
z
" style="fill:#c44e52;"/>
    </g>
    <g id="text_15">
     <!-- aimless -->
     <g style="fill:#262626;" transform="translate(248.220407 65.606848)scale(0.1 -0.1)">
      <use xlink:href="#DejaVuSans-61"/>
      <use x="61.279297" xlink:href="#DejaVuSans-69"/>
      <use x="89.0625" xlink:href="#DejaVuSans-6d"/>
      <use x="186.474609" xlink:href="#DejaVuSans-6c"/>
      <use x="214.257812" xlink:href="#DejaVuSans-65"/>
      <use x="275.78125" xlink:href="#DejaVuSans-73"/>
      <use x="327.880859" xlink:href="#DejaVuSans-73"/>
     </g>
    </g>
    <g id="patch_17">
     <path d="M 220.220407 80.284973 
L 240.220407 80.284973 
L 240.220407 73.284973 
L 220.220407 73.284973 
z
" style="fill:#55a868;"/>
    </g>
    <g id="text_16">
     <!-- adultseeking -->
     <defs>
      <path d="M 8.5 21.578125 
L 8.5 54.6875 
L 17.484375 54.6875 
L 17.484375 21.921875 
Q 17.484375 14.15625 20.5 10.265625 
Q 23.53125 6.390625 29.59375 6.390625 
Q 36.859375 6.390625 41.078125 11.03125 
Q 45.3125 15.671875 45.3125 23.6875 
L 45.3125 54.6875 
L 54.296875 54.6875 
L 54.296875 0 
L 45.3125 0 
L 45.3125 8.40625 
Q 42.046875 3.421875 37.71875 1 
Q 33.40625 -1.421875 27.6875 -1.421875 
Q 18.265625 -1.421875 13.375 4.4375 
Q 8.5 10.296875 8.5 21.578125 
z
M 31.109375 56 
z
" id="DejaVuSans-75"/>
     </defs>
     <g style="fill:#262626;" transform="translate(248.220407 80.284973)scale(0.1 -0.1)">
      <use xlink:href="#DejaVuSans-61"/>
      <use x="61.279297" xlink:href="#DejaVuSans-64"/>
      <use x="124.755859" xlink:href="#DejaVuSans-75"/>
      <use x="188.134766" xlink:href="#DejaVuSans-6c"/>
      <use x="215.917969" xlink:href="#DejaVuSans-74"/>
      <use x="255.126953" xlink:href="#DejaVuSans-73"/>
      <use x="307.226562" xlink:href="#DejaVuSans-65"/>
      <use x="368.75" xlink:href="#DejaVuSans-65"/>
      <use x="430.273438" xlink:href="#DejaVuSans-6b"/>
      <use x="488.183594" xlink:href="#DejaVuSans-69"/>
      <use x="515.966797" xlink:href="#DejaVuSans-6e"/>
      <use x="579.345703" xlink:href="#DejaVuSans-67"/>
     </g>
    </g>
    <g id="patch_18">
     <path d="M 220.220407 94.963098 
L 240.220407 94.963098 
L 240.220407 87.963098 
L 220.220407 87.963098 
z
" style="fill:#4c72b0;"/>
    </g>
    <g id="text_17">
     <!-- noplay -->
     <defs>
      <path d="M 18.109375 8.203125 
L 18.109375 -20.796875 
L 9.078125 -20.796875 
L 9.078125 54.6875 
L 18.109375 54.6875 
L 18.109375 46.390625 
Q 20.953125 51.265625 25.265625 53.625 
Q 29.59375 56 35.59375 56 
Q 45.5625 56 51.78125 48.09375 
Q 58.015625 40.1875 58.015625 27.296875 
Q 58.015625 14.40625 51.78125 6.484375 
Q 45.5625 -1.421875 35.59375 -1.421875 
Q 29.59375 -1.421875 25.265625 0.953125 
Q 20.953125 3.328125 18.109375 8.203125 
z
M 48.6875 27.296875 
Q 48.6875 37.203125 44.609375 42.84375 
Q 40.53125 48.484375 33.40625 48.484375 
Q 26.265625 48.484375 22.1875 42.84375 
Q 18.109375 37.203125 18.109375 27.296875 
Q 18.109375 17.390625 22.1875 11.75 
Q 26.265625 6.109375 33.40625 6.109375 
Q 40.53125 6.109375 44.609375 11.75 
Q 48.6875 17.390625 48.6875 27.296875 
z
" id="DejaVuSans-70"/>
      <path d="M 32.171875 -5.078125 
Q 28.375 -14.84375 24.75 -17.8125 
Q 21.140625 -20.796875 15.09375 -20.796875 
L 7.90625 -20.796875 
L 7.90625 -13.28125 
L 13.1875 -13.28125 
Q 16.890625 -13.28125 18.9375 -11.515625 
Q 21 -9.765625 23.484375 -3.21875 
L 25.09375 0.875 
L 2.984375 54.6875 
L 12.5 54.6875 
L 29.59375 11.921875 
L 46.6875 54.6875 
L 56.203125 54.6875 
z
" id="DejaVuSans-79"/>
     </defs>
     <g style="fill:#262626;" transform="translate(248.220407 94.963098)scale(0.1 -0.1)">
      <use xlink:href="#DejaVuSans-6e"/>
      <use x="63.378906" xlink:href="#DejaVuSans-6f"/>
      <use x="124.560547" xlink:href="#DejaVuSans-70"/>
      <use x="188.037109" xlink:href="#DejaVuSans-6c"/>
      <use x="215.820312" xlink:href="#DejaVuSans-61"/>
      <use x="277.099609" xlink:href="#DejaVuSans-79"/>
     </g>
    </g>
   </g>
  </g>
  <g id="axes_2">
   <g id="patch_19">
    <path d="M 357.725533 438.541714 
L 595.434467 438.541714 
L 595.434467 34.330286 
L 357.725533 34.330286 
z
" style="fill:#eaeaf2;"/>
   </g>
   <g id="matplotlib.axis_3">
    <g id="xtick_3">
     <g id="line2d_22">
      <path clip-path="url(#p0d8376a49b)" d="M 417.152767 438.541714 
L 417.152767 34.330286 
" style="fill:none;stroke:#ffffff;stroke-linecap:round;"/>
     </g>
     <g id="line2d_23"/>
     <g id="text_18">
      <!-- childchild -->
      <g style="fill:#262626;" transform="translate(393.412142 453.140152)scale(0.1 -0.1)">
       <use xlink:href="#DejaVuSans-63"/>
       <use x="54.980469" xlink:href="#DejaVuSans-68"/>
       <use x="118.359375" xlink:href="#DejaVuSans-69"/>
       <use x="146.142578" xlink:href="#DejaVuSans-6c"/>
       <use x="173.925781" xlink:href="#DejaVuSans-64"/>
       <use x="237.402344" xlink:href="#DejaVuSans-63"/>
       <use x="292.382812" xlink:href="#DejaVuSans-68"/>
       <use x="355.761719" xlink:href="#DejaVuSans-69"/>
       <use x="383.544922" xlink:href="#DejaVuSans-6c"/>
       <use x="411.328125" xlink:href="#DejaVuSans-64"/>
      </g>
     </g>
    </g>
    <g id="xtick_4">
     <g id="line2d_24">
      <path clip-path="url(#p0d8376a49b)" d="M 536.007233 438.541714 
L 536.007233 34.330286 
" style="fill:none;stroke:#ffffff;stroke-linecap:round;"/>
     </g>
     <g id="line2d_25"/>
     <g id="text_19">
      <!-- childrobot -->
      <g style="fill:#262626;" transform="translate(510.82989 453.140152)scale(0.1 -0.1)">
       <use xlink:href="#DejaVuSans-63"/>
       <use x="54.980469" xlink:href="#DejaVuSans-68"/>
       <use x="118.359375" xlink:href="#DejaVuSans-69"/>
       <use x="146.142578" xlink:href="#DejaVuSans-6c"/>
       <use x="173.925781" xlink:href="#DejaVuSans-64"/>
       <use x="237.402344" xlink:href="#DejaVuSans-72"/>
       <use x="278.484375" xlink:href="#DejaVuSans-6f"/>
       <use x="339.666016" xlink:href="#DejaVuSans-62"/>
       <use x="403.142578" xlink:href="#DejaVuSans-6f"/>
       <use x="464.324219" xlink:href="#DejaVuSans-74"/>
      </g>
     </g>
    </g>
   </g>
   <g id="matplotlib.axis_4">
    <g id="ytick_18">
     <g id="line2d_26"/>
    </g>
    <g id="ytick_19">
     <g id="line2d_27"/>
    </g>
    <g id="ytick_20">
     <g id="line2d_28"/>
    </g>
    <g id="ytick_21">
     <g id="line2d_29"/>
    </g>
    <g id="ytick_22">
     <g id="line2d_30"/>
    </g>
    <g id="ytick_23">
     <g id="line2d_31"/>
    </g>
    <g id="ytick_24">
     <g id="line2d_32"/>
    </g>
    <g id="ytick_25">
     <g id="line2d_33"/>
    </g>
    <g id="ytick_26">
     <g id="line2d_34"/>
    </g>
    <g id="ytick_27">
     <g id="line2d_35"/>
    </g>
    <g id="ytick_28">
     <g id="line2d_36"/>
    </g>
    <g id="ytick_29">
     <g id="line2d_37"/>
    </g>
    <g id="ytick_30">
     <g id="line2d_38"/>
    </g>
    <g id="ytick_31">
     <g id="line2d_39"/>
    </g>
    <g id="ytick_32">
     <g id="line2d_40"/>
    </g>
    <g id="ytick_33">
     <g id="line2d_41"/>
    </g>
    <g id="ytick_34">
     <g id="line2d_42"/>
    </g>
   </g>
   <g id="patch_20">
    <path clip-path="url(#p0d8376a49b)" d="M 387.43915 438.541714 
L 446.866383 438.541714 
L 446.866383 274.34008 
L 387.43915 274.34008 
z
" style="fill:#4c72b0;"/>
   </g>
   <g id="patch_21">
    <path clip-path="url(#p0d8376a49b)" d="M 506.293617 438.541714 
L 565.72085 438.541714 
L 565.72085 438.335835 
L 506.293617 438.335835 
z
" style="fill:#4c72b0;"/>
   </g>
   <g id="patch_22">
    <path clip-path="url(#p0d8376a49b)" d="M 387.43915 274.34008 
L 446.866383 274.34008 
L 446.866383 215.644781 
L 387.43915 215.644781 
z
" style="fill:#55a868;"/>
   </g>
   <g id="patch_23">
    <path clip-path="url(#p0d8376a49b)" d="M 506.293617 438.335835 
L 565.72085 438.335835 
L 565.72085 436.30947 
L 506.293617 436.30947 
z
" style="fill:#55a868;"/>
   </g>
   <g id="patch_24">
    <path clip-path="url(#p0d8376a49b)" d="M 387.43915 215.644781 
L 446.866383 215.644781 
L 446.866383 118.119349 
L 387.43915 118.119349 
z
" style="fill:#c44e52;"/>
   </g>
   <g id="patch_25">
    <path clip-path="url(#p0d8376a49b)" d="M 506.293617 436.30947 
L 565.72085 436.30947 
L 565.72085 400.058455 
L 506.293617 400.058455 
z
" style="fill:#c44e52;"/>
   </g>
   <g id="patch_26">
    <path clip-path="url(#p0d8376a49b)" d="M 387.43915 118.119349 
L 446.866383 118.119349 
L 446.866383 86.901132 
L 387.43915 86.901132 
z
" style="fill:#8172b2;"/>
   </g>
   <g id="patch_27">
    <path clip-path="url(#p0d8376a49b)" d="M 506.293617 400.058455 
L 565.72085 400.058455 
L 565.72085 396.571387 
L 506.293617 396.571387 
z
" style="fill:#8172b2;"/>
   </g>
   <g id="patch_28">
    <path clip-path="url(#p0d8376a49b)" d="M 387.43915 86.901132 
L 446.866383 86.901132 
L 446.866383 54.405584 
L 387.43915 54.405584 
z
" style="fill:#ccb974;"/>
   </g>
   <g id="patch_29">
    <path clip-path="url(#p0d8376a49b)" d="M 506.293617 396.571387 
L 565.72085 396.571387 
L 565.72085 359.057514 
L 506.293617 359.057514 
z
" style="fill:#ccb974;"/>
   </g>
   <g id="patch_30">
    <path d="M 357.725533 438.541714 
L 357.725533 34.330286 
" style="fill:none;"/>
   </g>
   <g id="patch_31">
    <path d="M 595.434467 438.541714 
L 595.434467 34.330286 
" style="fill:none;"/>
   </g>
   <g id="patch_32">
    <path d="M 357.725533 438.541714 
L 595.434467 438.541714 
" style="fill:none;"/>
   </g>
   <g id="patch_33">
    <path d="M 357.725533 34.330286 
L 595.434467 34.330286 
" style="fill:none;"/>
   </g>
   <g id="text_20">
    <!-- social engagement -->
    <g style="fill:#262626;" transform="translate(381.270625 28.330286)scale(0.2 -0.2)">
     <use xlink:href="#DejaVuSans-73"/>
     <use x="52.099609" xlink:href="#DejaVuSans-6f"/>
     <use x="113.28125" xlink:href="#DejaVuSans-63"/>
     <use x="168.261719" xlink:href="#DejaVuSans-69"/>
     <use x="196.044922" xlink:href="#DejaVuSans-61"/>
     <use x="257.324219" xlink:href="#DejaVuSans-6c"/>
     <use x="285.107422" xlink:href="#DejaVuSans-20"/>
     <use x="316.894531" xlink:href="#DejaVuSans-65"/>
     <use x="378.417969" xlink:href="#DejaVuSans-6e"/>
     <use x="441.796875" xlink:href="#DejaVuSans-67"/>
     <use x="505.273438" xlink:href="#DejaVuSans-61"/>
     <use x="566.552734" xlink:href="#DejaVuSans-67"/>
     <use x="630.029297" xlink:href="#DejaVuSans-65"/>
     <use x="691.552734" xlink:href="#DejaVuSans-6d"/>
     <use x="788.964844" xlink:href="#DejaVuSans-65"/>
     <use x="850.488281" xlink:href="#DejaVuSans-6e"/>
     <use x="913.867188" xlink:href="#DejaVuSans-74"/>
    </g>
   </g>
   <g id="legend_2">
    <g id="patch_34">
     <path d="M 499.187592 50.928723 
L 519.187592 50.928723 
L 519.187592 43.928723 
L 499.187592 43.928723 
z
" style="fill:#ccb974;"/>
    </g>
    <g id="text_21">
     <!-- solitary -->
     <g style="fill:#262626;" transform="translate(527.187592 50.928723)scale(0.1 -0.1)">
      <use xlink:href="#DejaVuSans-73"/>
      <use x="52.099609" xlink:href="#DejaVuSans-6f"/>
      <use x="113.28125" xlink:href="#DejaVuSans-6c"/>
      <use x="141.064453" xlink:href="#DejaVuSans-69"/>
      <use x="168.847656" xlink:href="#DejaVuSans-74"/>
      <use x="208.056641" xlink:href="#DejaVuSans-61"/>
      <use x="269.335938" xlink:href="#DejaVuSans-72"/>
      <use x="310.449219" xlink:href="#DejaVuSans-79"/>
     </g>
    </g>
    <g id="patch_35">
     <path d="M 499.187592 65.606848 
L 519.187592 65.606848 
L 519.187592 58.606848 
L 499.187592 58.606848 
z
" style="fill:#8172b2;"/>
    </g>
    <g id="text_22">
     <!-- onlooker -->
     <g style="fill:#262626;" transform="translate(527.187592 65.606848)scale(0.1 -0.1)">
      <use xlink:href="#DejaVuSans-6f"/>
      <use x="61.181641" xlink:href="#DejaVuSans-6e"/>
      <use x="124.560547" xlink:href="#DejaVuSans-6c"/>
      <use x="152.34375" xlink:href="#DejaVuSans-6f"/>
      <use x="213.525391" xlink:href="#DejaVuSans-6f"/>
      <use x="274.707031" xlink:href="#DejaVuSans-6b"/>
      <use x="332.570312" xlink:href="#DejaVuSans-65"/>
      <use x="394.09375" xlink:href="#DejaVuSans-72"/>
     </g>
    </g>
    <g id="patch_36">
     <path d="M 499.187592 80.284973 
L 519.187592 80.284973 
L 519.187592 73.284973 
L 499.187592 73.284973 
z
" style="fill:#c44e52;"/>
    </g>
    <g id="text_23">
     <!-- parallel -->
     <g style="fill:#262626;" transform="translate(527.187592 80.284973)scale(0.1 -0.1)">
      <use xlink:href="#DejaVuSans-70"/>
      <use x="63.476562" xlink:href="#DejaVuSans-61"/>
      <use x="124.755859" xlink:href="#DejaVuSans-72"/>
      <use x="165.869141" xlink:href="#DejaVuSans-61"/>
      <use x="227.148438" xlink:href="#DejaVuSans-6c"/>
      <use x="254.931641" xlink:href="#DejaVuSans-6c"/>
      <use x="282.714844" xlink:href="#DejaVuSans-65"/>
      <use x="344.238281" xlink:href="#DejaVuSans-6c"/>
     </g>
    </g>
    <g id="patch_37">
     <path d="M 499.187592 94.963098 
L 519.187592 94.963098 
L 519.187592 87.963098 
L 499.187592 87.963098 
z
" style="fill:#55a868;"/>
    </g>
    <g id="text_24">
     <!-- associative -->
     <defs>
      <path d="M 2.984375 54.6875 
L 12.5 54.6875 
L 29.59375 8.796875 
L 46.6875 54.6875 
L 56.203125 54.6875 
L 35.6875 0 
L 23.484375 0 
z
" id="DejaVuSans-76"/>
     </defs>
     <g style="fill:#262626;" transform="translate(527.187592 94.963098)scale(0.1 -0.1)">
      <use xlink:href="#DejaVuSans-61"/>
      <use x="61.279297" xlink:href="#DejaVuSans-73"/>
      <use x="113.378906" xlink:href="#DejaVuSans-73"/>
      <use x="165.478516" xlink:href="#DejaVuSans-6f"/>
      <use x="226.660156" xlink:href="#DejaVuSans-63"/>
      <use x="281.640625" xlink:href="#DejaVuSans-69"/>
      <use x="309.423828" xlink:href="#DejaVuSans-61"/>
      <use x="370.703125" xlink:href="#DejaVuSans-74"/>
      <use x="409.912109" xlink:href="#DejaVuSans-69"/>
      <use x="437.695312" xlink:href="#DejaVuSans-76"/>
      <use x="496.875" xlink:href="#DejaVuSans-65"/>
     </g>
    </g>
    <g id="patch_38">
     <path d="M 499.187592 109.641223 
L 519.187592 109.641223 
L 519.187592 102.641223 
L 499.187592 102.641223 
z
" style="fill:#4c72b0;"/>
    </g>
    <g id="text_25">
     <!-- cooperative -->
     <g style="fill:#262626;" transform="translate(527.187592 109.641223)scale(0.1 -0.1)">
      <use xlink:href="#DejaVuSans-63"/>
      <use x="54.980469" xlink:href="#DejaVuSans-6f"/>
      <use x="116.162109" xlink:href="#DejaVuSans-6f"/>
      <use x="177.34375" xlink:href="#DejaVuSans-70"/>
      <use x="240.820312" xlink:href="#DejaVuSans-65"/>
      <use x="302.34375" xlink:href="#DejaVuSans-72"/>
      <use x="343.457031" xlink:href="#DejaVuSans-61"/>
      <use x="404.736328" xlink:href="#DejaVuSans-74"/>
      <use x="443.945312" xlink:href="#DejaVuSans-69"/>
      <use x="471.728516" xlink:href="#DejaVuSans-76"/>
      <use x="530.908203" xlink:href="#DejaVuSans-65"/>
     </g>
    </g>
   </g>
  </g>
  <g id="axes_3">
   <g id="patch_39">
    <path d="M 631.656781 438.541714 
L 869.365714 438.541714 
L 869.365714 34.330286 
L 631.656781 34.330286 
z
" style="fill:#eaeaf2;"/>
   </g>
   <g id="matplotlib.axis_5">
    <g id="xtick_5">
     <g id="line2d_43">
      <path clip-path="url(#p20e171fe8e)" d="M 691.084014 438.541714 
L 691.084014 34.330286 
" style="fill:none;stroke:#ffffff;stroke-linecap:round;"/>
     </g>
     <g id="line2d_44"/>
     <g id="text_26">
      <!-- childchild -->
      <g style="fill:#262626;" transform="translate(667.343389 453.140152)scale(0.1 -0.1)">
       <use xlink:href="#DejaVuSans-63"/>
       <use x="54.980469" xlink:href="#DejaVuSans-68"/>
       <use x="118.359375" xlink:href="#DejaVuSans-69"/>
       <use x="146.142578" xlink:href="#DejaVuSans-6c"/>
       <use x="173.925781" xlink:href="#DejaVuSans-64"/>
       <use x="237.402344" xlink:href="#DejaVuSans-63"/>
       <use x="292.382812" xlink:href="#DejaVuSans-68"/>
       <use x="355.761719" xlink:href="#DejaVuSans-69"/>
       <use x="383.544922" xlink:href="#DejaVuSans-6c"/>
       <use x="411.328125" xlink:href="#DejaVuSans-64"/>
      </g>
     </g>
    </g>
    <g id="xtick_6">
     <g id="line2d_45">
      <path clip-path="url(#p20e171fe8e)" d="M 809.938481 438.541714 
L 809.938481 34.330286 
" style="fill:none;stroke:#ffffff;stroke-linecap:round;"/>
     </g>
     <g id="line2d_46"/>
     <g id="text_27">
      <!-- childrobot -->
      <g style="fill:#262626;" transform="translate(784.761137 453.140152)scale(0.1 -0.1)">
       <use xlink:href="#DejaVuSans-63"/>
       <use x="54.980469" xlink:href="#DejaVuSans-68"/>
       <use x="118.359375" xlink:href="#DejaVuSans-69"/>
       <use x="146.142578" xlink:href="#DejaVuSans-6c"/>
       <use x="173.925781" xlink:href="#DejaVuSans-64"/>
       <use x="237.402344" xlink:href="#DejaVuSans-72"/>
       <use x="278.484375" xlink:href="#DejaVuSans-6f"/>
       <use x="339.666016" xlink:href="#DejaVuSans-62"/>
       <use x="403.142578" xlink:href="#DejaVuSans-6f"/>
       <use x="464.324219" xlink:href="#DejaVuSans-74"/>
      </g>
     </g>
    </g>
   </g>
   <g id="matplotlib.axis_6">
    <g id="ytick_35">
     <g id="line2d_47"/>
    </g>
    <g id="ytick_36">
     <g id="line2d_48"/>
    </g>
    <g id="ytick_37">
     <g id="line2d_49"/>
    </g>
    <g id="ytick_38">
     <g id="line2d_50"/>
    </g>
    <g id="ytick_39">
     <g id="line2d_51"/>
    </g>
    <g id="ytick_40">
     <g id="line2d_52"/>
    </g>
    <g id="ytick_41">
     <g id="line2d_53"/>
    </g>
    <g id="ytick_42">
     <g id="line2d_54"/>
    </g>
    <g id="ytick_43">
     <g id="line2d_55"/>
    </g>
    <g id="ytick_44">
     <g id="line2d_56"/>
    </g>
    <g id="ytick_45">
     <g id="line2d_57"/>
    </g>
    <g id="ytick_46">
     <g id="line2d_58"/>
    </g>
    <g id="ytick_47">
     <g id="line2d_59"/>
    </g>
    <g id="ytick_48">
     <g id="line2d_60"/>
    </g>
    <g id="ytick_49">
     <g id="line2d_61"/>
    </g>
    <g id="ytick_50">
     <g id="line2d_62"/>
    </g>
    <g id="ytick_51">
     <g id="line2d_63"/>
    </g>
    <g id="ytick_52">
     <g id="line2d_64"/>
    </g>
    <g id="ytick_53">
     <g id="line2d_65"/>
    </g>
   </g>
   <g id="patch_40">
    <path clip-path="url(#p20e171fe8e)" d="M 661.370397 438.541714 
L 720.797631 438.541714 
L 720.797631 317.171141 
L 661.370397 317.171141 
z
" style="fill:#4c72b0;"/>
   </g>
   <g id="patch_41">
    <path clip-path="url(#p20e171fe8e)" d="M 780.224864 438.541714 
L 839.652098 438.541714 
L 839.652098 380.572267 
L 780.224864 380.572267 
z
" style="fill:#4c72b0;"/>
   </g>
   <g id="patch_42">
    <path clip-path="url(#p20e171fe8e)" d="M 661.370397 317.171141 
L 720.797631 317.171141 
L 720.797631 263.281874 
L 661.370397 263.281874 
z
" style="fill:#55a868;"/>
   </g>
   <g id="patch_43">
    <path clip-path="url(#p20e171fe8e)" d="M 780.224864 380.572267 
L 839.652098 380.572267 
L 839.652098 374.787766 
L 780.224864 374.787766 
z
" style="fill:#55a868;"/>
   </g>
   <g id="patch_44">
    <path clip-path="url(#p20e171fe8e)" d="M 661.370397 263.281874 
L 720.797631 263.281874 
L 720.797631 256.775826 
L 661.370397 256.775826 
z
" style="fill:#c44e52;"/>
   </g>
   <g id="patch_45">
    <path clip-path="url(#p20e171fe8e)" d="M 780.224864 374.787766 
L 839.652098 374.787766 
L 839.652098 374.764517 
L 780.224864 374.764517 
z
" style="fill:#c44e52;"/>
   </g>
   <g id="patch_46">
    <path clip-path="url(#p20e171fe8e)" d="M 661.370397 256.775826 
L 720.797631 256.775826 
L 720.797631 251.355263 
L 661.370397 251.355263 
z
" style="fill:#8172b2;"/>
   </g>
   <g id="patch_47">
    <path clip-path="url(#p20e171fe8e)" d="M 780.224864 438.541714 
L 839.652098 438.541714 
L 839.652098 438.541714 
L 780.224864 438.541714 
z
" style="fill:#8172b2;"/>
   </g>
   <g id="patch_48">
    <path clip-path="url(#p20e171fe8e)" d="M 661.370397 251.355263 
L 720.797631 251.355263 
L 720.797631 88.377058 
L 661.370397 88.377058 
z
" style="fill:#ccb974;"/>
   </g>
   <g id="patch_49">
    <path clip-path="url(#p20e171fe8e)" d="M 780.224864 374.764517 
L 839.652098 374.764517 
L 839.652098 366.153441 
L 780.224864 366.153441 
z
" style="fill:#ccb974;"/>
   </g>
   <g id="patch_50">
    <path d="M 631.656781 438.541714 
L 631.656781 34.330286 
" style="fill:none;"/>
   </g>
   <g id="patch_51">
    <path d="M 869.365714 438.541714 
L 869.365714 34.330286 
" style="fill:none;"/>
   </g>
   <g id="patch_52">
    <path d="M 631.656781 438.541714 
L 869.365714 438.541714 
" style="fill:none;"/>
   </g>
   <g id="patch_53">
    <path d="M 631.656781 34.330286 
L 869.365714 34.330286 
" style="fill:none;"/>
   </g>
   <g id="text_28">
    <!-- social attitude -->
    <g style="fill:#262626;" transform="translate(679.315935 28.330286)scale(0.2 -0.2)">
     <use xlink:href="#DejaVuSans-73"/>
     <use x="52.099609" xlink:href="#DejaVuSans-6f"/>
     <use x="113.28125" xlink:href="#DejaVuSans-63"/>
     <use x="168.261719" xlink:href="#DejaVuSans-69"/>
     <use x="196.044922" xlink:href="#DejaVuSans-61"/>
     <use x="257.324219" xlink:href="#DejaVuSans-6c"/>
     <use x="285.107422" xlink:href="#DejaVuSans-20"/>
     <use x="316.894531" xlink:href="#DejaVuSans-61"/>
     <use x="378.173828" xlink:href="#DejaVuSans-74"/>
     <use x="417.382812" xlink:href="#DejaVuSans-74"/>
     <use x="456.591797" xlink:href="#DejaVuSans-69"/>
     <use x="484.375" xlink:href="#DejaVuSans-74"/>
     <use x="523.583984" xlink:href="#DejaVuSans-75"/>
     <use x="586.962891" xlink:href="#DejaVuSans-64"/>
     <use x="650.439453" xlink:href="#DejaVuSans-65"/>
    </g>
   </g>
   <g id="legend_3">
    <g id="patch_54">
     <path d="M 776.573527 50.928723 
L 796.573527 50.928723 
L 796.573527 43.928723 
L 776.573527 43.928723 
z
" style="fill:#ccb974;"/>
    </g>
    <g id="text_29">
     <!-- prosocial -->
     <g style="fill:#262626;" transform="translate(804.573527 50.928723)scale(0.1 -0.1)">
      <use xlink:href="#DejaVuSans-70"/>
      <use x="63.476562" xlink:href="#DejaVuSans-72"/>
      <use x="104.558594" xlink:href="#DejaVuSans-6f"/>
      <use x="165.740234" xlink:href="#DejaVuSans-73"/>
      <use x="217.839844" xlink:href="#DejaVuSans-6f"/>
      <use x="279.021484" xlink:href="#DejaVuSans-63"/>
      <use x="334.001953" xlink:href="#DejaVuSans-69"/>
      <use x="361.785156" xlink:href="#DejaVuSans-61"/>
      <use x="423.064453" xlink:href="#DejaVuSans-6c"/>
     </g>
    </g>
    <g id="patch_55">
     <path d="M 776.573527 65.606848 
L 796.573527 65.606848 
L 796.573527 58.606848 
L 776.573527 58.606848 
z
" style="fill:#8172b2;"/>
    </g>
    <g id="text_30">
     <!-- adversarial -->
     <g style="fill:#262626;" transform="translate(804.573527 65.606848)scale(0.1 -0.1)">
      <use xlink:href="#DejaVuSans-61"/>
      <use x="61.279297" xlink:href="#DejaVuSans-64"/>
      <use x="124.755859" xlink:href="#DejaVuSans-76"/>
      <use x="183.935547" xlink:href="#DejaVuSans-65"/>
      <use x="245.458984" xlink:href="#DejaVuSans-72"/>
      <use x="286.572266" xlink:href="#DejaVuSans-73"/>
      <use x="338.671875" xlink:href="#DejaVuSans-61"/>
      <use x="399.951172" xlink:href="#DejaVuSans-72"/>
      <use x="441.064453" xlink:href="#DejaVuSans-69"/>
      <use x="468.847656" xlink:href="#DejaVuSans-61"/>
      <use x="530.126953" xlink:href="#DejaVuSans-6c"/>
     </g>
    </g>
    <g id="patch_56">
     <path d="M 776.573527 80.284973 
L 796.573527 80.284973 
L 796.573527 73.284973 
L 776.573527 73.284973 
z
" style="fill:#c44e52;"/>
    </g>
    <g id="text_31">
     <!-- frustrated -->
     <defs>
      <path d="M 37.109375 75.984375 
L 37.109375 68.5 
L 28.515625 68.5 
Q 23.6875 68.5 21.796875 66.546875 
Q 19.921875 64.59375 19.921875 59.515625 
L 19.921875 54.6875 
L 34.71875 54.6875 
L 34.71875 47.703125 
L 19.921875 47.703125 
L 19.921875 0 
L 10.890625 0 
L 10.890625 47.703125 
L 2.296875 47.703125 
L 2.296875 54.6875 
L 10.890625 54.6875 
L 10.890625 58.5 
Q 10.890625 67.625 15.140625 71.796875 
Q 19.390625 75.984375 28.609375 75.984375 
z
" id="DejaVuSans-66"/>
     </defs>
     <g style="fill:#262626;" transform="translate(804.573527 80.284973)scale(0.1 -0.1)">
      <use xlink:href="#DejaVuSans-66"/>
      <use x="35.205078" xlink:href="#DejaVuSans-72"/>
      <use x="76.318359" xlink:href="#DejaVuSans-75"/>
      <use x="139.697266" xlink:href="#DejaVuSans-73"/>
      <use x="191.796875" xlink:href="#DejaVuSans-74"/>
      <use x="231.005859" xlink:href="#DejaVuSans-72"/>
      <use x="272.119141" xlink:href="#DejaVuSans-61"/>
      <use x="333.398438" xlink:href="#DejaVuSans-74"/>
      <use x="372.607422" xlink:href="#DejaVuSans-65"/>
      <use x="434.130859" xlink:href="#DejaVuSans-64"/>
     </g>
    </g>
    <g id="patch_57">
     <path d="M 776.573527 94.963098 
L 796.573527 94.963098 
L 796.573527 87.963098 
L 776.573527 87.963098 
z
" style="fill:#55a868;"/>
    </g>
    <g id="text_32">
     <!-- assertive -->
     <g style="fill:#262626;" transform="translate(804.573527 94.963098)scale(0.1 -0.1)">
      <use xlink:href="#DejaVuSans-61"/>
      <use x="61.279297" xlink:href="#DejaVuSans-73"/>
      <use x="113.378906" xlink:href="#DejaVuSans-73"/>
      <use x="165.478516" xlink:href="#DejaVuSans-65"/>
      <use x="227.001953" xlink:href="#DejaVuSans-72"/>
      <use x="268.115234" xlink:href="#DejaVuSans-74"/>
      <use x="307.324219" xlink:href="#DejaVuSans-69"/>
      <use x="335.107422" xlink:href="#DejaVuSans-76"/>
      <use x="394.287109" xlink:href="#DejaVuSans-65"/>
     </g>
    </g>
    <g id="patch_58">
     <path d="M 776.573527 109.641223 
L 796.573527 109.641223 
L 796.573527 102.641223 
L 776.573527 102.641223 
z
" style="fill:#4c72b0;"/>
    </g>
    <g id="text_33">
     <!-- passive -->
     <g style="fill:#262626;" transform="translate(804.573527 109.641223)scale(0.1 -0.1)">
      <use xlink:href="#DejaVuSans-70"/>
      <use x="63.476562" xlink:href="#DejaVuSans-61"/>
      <use x="124.755859" xlink:href="#DejaVuSans-73"/>
      <use x="176.855469" xlink:href="#DejaVuSans-73"/>
      <use x="228.955078" xlink:href="#DejaVuSans-69"/>
      <use x="256.738281" xlink:href="#DejaVuSans-76"/>
      <use x="315.917969" xlink:href="#DejaVuSans-65"/>
     </g>
    </g>
   </g>
  </g>
 </g>
 <defs>
  <clipPath id="p4161216fc9">
   <rect height="404.211429" width="237.708934" x="83.794286" y="34.330286"/>
  </clipPath>
  <clipPath id="p0d8376a49b">
   <rect height="404.211429" width="237.708934" x="357.725533" y="34.330286"/>
  </clipPath>
  <clipPath id="p20e171fe8e">
   <rect height="404.211429" width="237.708934" x="631.656781" y="34.330286"/>
  </clipPath>
 </defs>
</svg>
